<svg width="113" height="19" viewBox="0 0 113 19" fill="none" xmlns="http://www.w3.org/2000/svg">
<g clip-path="url(#clip0_853_138722)">
<path d="M8.60034 7.4932C6.97715 6.77377 5.64457 6.19063 5.64457 5.01989C5.64457 4.11949 6.403 3.46709 7.90334 3.46709C8.45622 3.46709 8.9075 3.52965 9.37059 3.61008C9.61395 3.64807 9.87385 3.68381 10.0912 3.68381C11.4025 3.68381 12.1421 2.94428 12.6359 1.54118L12.8391 0.96921C12.6264 0.888777 10.4882 -0.00268555 7.69305 -0.00268555C3.25112 -0.000451304 0.907289 2.69181 0.907289 5.48908C0.907289 6.90112 1.37275 7.92217 2.10519 8.7265C3.04556 9.76095 4.38759 10.4402 5.64457 11.0188C7.47568 11.8678 9.12723 12.4957 9.12723 13.7535C9.12959 14.8729 7.90806 15.5052 6.27778 15.5052C4.04027 15.5052 2.08629 14.2965 1.83821 14.1512L0 17.4043C0.32842 17.5786 2.69351 18.9973 6.58493 18.9973C10.7315 18.9951 13.8692 16.7497 13.8692 13.2888C13.8692 9.82798 10.9607 8.57234 8.60034 7.49096V7.4932Z" fill="url(#paint0_linear_853_138722)"/>
<path d="M24.8205 9.10208L32.3434 0.38183H26.9848L20.9834 7.90676H20.8913V0.38183H16.4753V18.8545H16.74C18.649 18.8545 20.9243 18.0189 20.9243 15.0027V10.7599H21.0118L27.1289 18.6244H32.7498L24.8205 9.09985V9.10208Z" fill="url(#paint1_linear_853_138722)"/>
<path d="M109.439 8.40723C107.114 8.40723 105.921 9.85278 105.735 10.074C105.149 9.02611 104.069 8.40723 102.654 8.40723C100.603 8.40723 99.4426 9.53105 99.2513 9.71203C99.1662 9.4104 98.748 8.59044 97.4272 8.59044C97.0445 8.59044 96.4869 8.70662 96.4396 8.71555C96.4939 8.95238 96.7444 10.0963 96.7444 11.6737V18.6267H99.4355V11.5374C99.4899 11.4927 100.496 10.5298 101.706 10.5298C102.916 10.5298 103.521 11.3855 103.521 12.5518V18.6267H106.221V11.5352C106.276 11.486 107.263 10.5298 108.492 10.5298C109.721 10.5298 110.288 11.3855 110.288 12.5518V18.6267H113V12.1563C113 9.88406 111.63 8.40723 109.442 8.40723H109.439Z" fill="url(#paint2_linear_853_138722)"/>
<path d="M79.9265 16.7879C78.1001 16.7879 76.7935 15.4205 76.7935 13.6354C76.7935 11.6469 78.2773 10.4605 79.9265 10.4605C80.8149 10.4605 81.1882 10.7174 81.7789 10.7174C82.4097 10.7174 82.7429 10.4292 83.0547 9.85725C83.2249 9.53999 83.3265 9.35678 83.3265 9.35678C83.1941 9.27635 81.8285 8.40053 79.5177 8.40053C76.1248 8.40053 74.0929 10.6996 74.0929 13.6354C74.0929 16.837 76.4155 18.8478 79.5177 18.8478C81.7647 18.8478 83.128 17.981 83.369 17.8179L82.4357 16.0751C82.2278 16.2003 81.2662 16.7879 79.9265 16.7879Z" fill="url(#paint3_linear_853_138722)"/>
<path d="M48.332 12.5227C48.332 11.3788 49.1803 10.3197 50.3687 10.3197C51.6989 10.3197 52.4314 11.4123 52.4526 12.5227H48.332ZM50.4089 8.40723C47.8311 8.40723 45.6527 10.3912 45.6527 13.6398C45.6527 16.8884 47.7626 18.8501 50.9169 18.8501C53.4214 18.8501 54.7232 17.8156 54.8792 17.7196C54.8792 17.7196 54.6334 17.342 54.5673 17.2392C54.2129 16.694 53.8136 16.5198 53.3694 16.5198C52.4834 16.5198 52.3699 16.8661 51.1673 16.8661C49.1023 16.8661 48.3911 15.3446 48.3391 14.3302H55.2478V13.5728C55.2478 10.456 53.3505 8.40723 50.4089 8.40723Z" fill="url(#paint4_linear_853_138722)"/>
<path d="M59.8527 5.39994C59.8527 4.22473 59.0234 3.31539 57.7357 3.31539H57.1592V16.8348C57.1592 18.0793 57.972 18.8501 59.3896 18.8501C61.1404 18.8501 61.6626 17.6749 61.6626 16.5689C61.5893 16.6069 61.2184 16.7499 60.8451 16.7499C60.2213 16.7499 59.8527 16.4081 59.8527 15.8137V5.39994Z" fill="url(#paint5_linear_853_138722)"/>
<path d="M41.8487 10.5097H44.098L44.8825 8.59267H41.8487V5.59879C41.8487 5.59879 41.6077 5.59879 41.5983 5.59879C40.4003 5.59879 39.1575 6.08138 39.1575 8.57033V8.59267H37.1658V10.5097H39.1575V16.3388C39.1575 17.9921 40.1877 18.8501 41.655 18.8501C42.841 18.8501 44.3674 18.5105 44.3674 16.2919C44.2752 16.3433 43.7034 16.694 43.0726 16.694C42.196 16.694 41.8487 16.1891 41.8487 15.4607V10.5097Z" fill="url(#paint6_linear_853_138722)"/>
<path d="M65.2256 12.5227C65.2256 11.3788 66.0714 10.3197 67.2599 10.3197C68.5901 10.3197 69.3225 11.4123 69.3438 12.5227H65.2256ZM67.3 8.40723C64.7223 8.40723 62.5486 10.3912 62.5486 13.6398C62.5486 16.8884 64.6585 18.8501 67.8128 18.8501C70.3173 18.8501 71.612 17.8156 71.7727 17.7196C71.7727 17.7196 71.5293 17.342 71.4608 17.2392C71.1088 16.694 70.7071 16.5198 70.2629 16.5198C69.3745 16.5198 69.2635 16.8661 68.0585 16.8661C65.9958 16.8661 65.2799 15.3446 65.2327 14.3302H72.1366V13.5728C72.1366 10.456 70.2393 8.40723 67.2977 8.40723" fill="url(#paint7_linear_853_138722)"/>
<path d="M89.5381 16.8906C91.1896 16.8906 92.1418 15.5479 92.1418 13.6331C92.1418 11.7184 91.2133 10.3622 89.5381 10.3622C87.8629 10.3622 86.9391 11.6938 86.9391 13.6331C86.9391 15.5724 87.8676 16.8906 89.5381 16.8906ZM89.5381 18.8501C86.2421 18.8501 84.2597 16.7923 84.2597 13.6331C84.2597 10.4739 86.2161 8.40276 89.5381 8.40276C92.8601 8.40276 94.8211 10.4828 94.8211 13.6331C94.8211 16.6069 93.0137 18.8501 89.5381 18.8501Z" fill="url(#paint8_linear_853_138722)"/>
</g>
<defs>
<linearGradient id="paint0_linear_853_138722" x1="0" y1="9.49731" x2="113" y2="9.49731" gradientUnits="userSpaceOnUse">
<stop stop-color="#0E306D"/>
<stop offset="1" stop-color="#4130DF"/>
</linearGradient>
<linearGradient id="paint1_linear_853_138722" x1="0" y1="9.49731" x2="113" y2="9.49731" gradientUnits="userSpaceOnUse">
<stop stop-color="#0E306D"/>
<stop offset="1" stop-color="#4130DF"/>
</linearGradient>
<linearGradient id="paint2_linear_853_138722" x1="0" y1="9.49731" x2="113" y2="9.49731" gradientUnits="userSpaceOnUse">
<stop stop-color="#0E306D"/>
<stop offset="1" stop-color="#4130DF"/>
</linearGradient>
<linearGradient id="paint3_linear_853_138722" x1="0" y1="9.49731" x2="113" y2="9.49731" gradientUnits="userSpaceOnUse">
<stop stop-color="#0E306D"/>
<stop offset="1" stop-color="#4130DF"/>
</linearGradient>
<linearGradient id="paint4_linear_853_138722" x1="0" y1="9.49731" x2="113" y2="9.49731" gradientUnits="userSpaceOnUse">
<stop stop-color="#0E306D"/>
<stop offset="1" stop-color="#4130DF"/>
</linearGradient>
<linearGradient id="paint5_linear_853_138722" x1="0" y1="9.49731" x2="113" y2="9.49731" gradientUnits="userSpaceOnUse">
<stop stop-color="#0E306D"/>
<stop offset="1" stop-color="#4130DF"/>
</linearGradient>
<linearGradient id="paint6_linear_853_138722" x1="0" y1="9.49731" x2="113" y2="9.49731" gradientUnits="userSpaceOnUse">
<stop stop-color="#0E306D"/>
<stop offset="1" stop-color="#4130DF"/>
</linearGradient>
<linearGradient id="paint7_linear_853_138722" x1="0" y1="9.49731" x2="113" y2="9.49731" gradientUnits="userSpaceOnUse">
<stop stop-color="#0E306D"/>
<stop offset="1" stop-color="#4130DF"/>
</linearGradient>
<linearGradient id="paint8_linear_853_138722" x1="0" y1="9.49731" x2="113" y2="9.49731" gradientUnits="userSpaceOnUse">
<stop stop-color="#0E306D"/>
<stop offset="1" stop-color="#4130DF"/>
</linearGradient>
<clipPath id="clip0_853_138722">
<rect width="113" height="19" fill="white"/>
</clipPath>
</defs>
</svg>
