<svg width="63" height="24" viewBox="0 0 63 24" fill="none" xmlns="http://www.w3.org/2000/svg">
<g opacity="0.5">
<path fill-rule="evenodd" clip-rule="evenodd" d="M13.0568 11.1383C12.8705 11.1383 12.7802 11.017 12.7547 10.8027C12.748 10.7394 12.661 9.94387 12.5388 8.82632L12.5379 8.81849L12.5377 8.81648C12.2516 6.20012 11.7739 1.83104 11.6791 0.944882C11.673 0.887704 11.6645 0.816156 11.6556 0.740946L11.6556 0.740849L11.6556 0.740836C11.6355 0.571213 11.6133 0.38299 11.6113 0.298978C11.6113 0.10436 11.7384 0.00282054 11.888 0C12.3228 0 14.6887 0.552827 17.2014 2.31003C16.4787 2.51311 15.1687 3.26619 15.1743 4.82313C15.1771 5.51163 15.4248 6.04551 15.6725 6.57949C15.921 7.1152 16.1695 7.65102 16.1709 8.34317C16.1794 10.5911 13.5904 11.1355 13.0568 11.1383ZM17.7204 2.68516C16.9045 2.84029 15.6905 3.57927 15.6961 4.89082C15.6975 5.44589 15.91 5.89913 16.1367 6.3827C16.3962 6.93609 16.6743 7.5292 16.6758 8.36009C16.6815 9.53344 16.0321 10.3232 15.3348 10.7604C15.6171 10.735 15.9277 10.7181 16.2693 10.7181C16.9287 10.7181 17.3476 10.7758 17.428 10.7868L17.4409 10.7886L21.1056 6.29545C20.0863 4.77236 18.8977 3.59055 17.7204 2.68516ZM5.1176 17.6171L5.10384 17.6107C4.25742 17.2159 3.56197 16.8915 3.56197 16.2435C3.56197 15.7443 3.96005 15.3832 4.75057 15.3832C5.04137 15.3832 5.27852 15.4171 5.52415 15.4622C5.6512 15.4848 5.78954 15.5017 5.90247 15.5017C6.59135 15.5017 6.98096 15.0927 7.23788 14.3143L7.34517 13.9955L7.32921 13.9889C7.15292 13.9153 6.05544 13.4568 4.64328 13.4568C2.30843 13.4568 1.07748 14.9517 1.07748 16.503C1.07748 17.2871 1.3231 17.854 1.70707 18.2997C2.20114 18.8751 2.90696 19.2502 3.56761 19.5717C3.65353 19.6138 3.73868 19.6548 3.82251 19.6953L3.82262 19.6953C4.6782 20.108 5.3971 20.4547 5.3971 21.0892C5.3971 21.7097 4.75622 22.0623 3.89794 22.0623C2.75396 22.0623 1.74926 21.4254 1.57783 21.3167L1.5659 21.3092L0.600342 23.1143C0.609815 23.1196 0.622526 23.127 0.638431 23.1362C0.911655 23.2947 2.12725 24 4.05886 24C6.23844 24 7.88724 22.7505 7.88724 20.8297C7.88724 18.9533 6.4269 18.2451 5.20657 17.6533L5.12042 17.6115L5.1176 17.6171ZM35.0813 22.2344V16.4551C35.0813 15.8035 34.6465 15.2986 33.9689 15.2986H33.6669V22.8013C33.6669 23.4923 34.096 23.921 34.8385 23.921C35.7561 23.921 36.0328 23.2695 36.0328 22.6546C35.9932 22.6744 35.8013 22.7533 35.6036 22.7533C35.2761 22.7533 35.0813 22.5644 35.0813 22.2344ZM61.134 18.1249C59.9365 18.1249 59.3079 18.8998 59.1919 19.0427L59.1859 19.05C58.8782 18.469 58.3107 18.1249 57.5682 18.1249C56.5055 18.1249 55.8975 18.7333 55.785 18.8459L55.7811 18.8498C55.7359 18.6834 55.5157 18.2264 54.8211 18.2264C54.6207 18.2264 54.3271 18.2885 54.3017 18.2969C54.3299 18.4267 54.4626 19.0613 54.4626 19.9385V23.797H55.8742V19.8623L55.8819 19.8551C55.9542 19.786 56.4615 19.3011 57.0685 19.3011C57.7065 19.3011 58.0199 19.7749 58.0199 20.4236V23.7942H59.44V19.8595L59.4415 19.8581C59.4825 19.8169 59.9966 19.3011 60.6315 19.3011C61.2752 19.3011 61.5744 19.7749 61.5744 20.4236V23.7942H63.0002V20.2036C63.0002 18.9428 62.2831 18.1221 61.1312 18.1221L61.134 18.1249ZM45.6289 22.776C44.669 22.776 43.9829 22.0172 43.9829 21.0272C43.9829 19.9244 44.7621 19.2672 45.6289 19.2672C45.8872 19.2672 46.0624 19.3101 46.2196 19.3485C46.3475 19.3798 46.4636 19.4082 46.6029 19.4082C46.9332 19.4082 47.1111 19.2475 47.2749 18.9287C47.3652 18.7539 47.4188 18.6523 47.4188 18.6523L47.412 18.6479C47.3107 18.5823 46.5996 18.1221 45.4171 18.1221C43.6356 18.1221 42.5684 19.397 42.5684 21.0272C42.5684 22.8042 43.7881 23.9211 45.4171 23.9211C46.5973 23.9211 47.3144 23.4388 47.4414 23.3485L46.9502 22.3811L46.9374 22.389C46.8051 22.471 46.3131 22.776 45.6317 22.776H45.6289ZM27.622 21.03C27.622 19.2248 28.7654 18.1248 30.1206 18.1248C31.6649 18.1248 32.6615 19.2643 32.6615 20.9933V21.4136H29.0336C29.059 21.9748 29.4345 22.821 30.5187 22.821C30.859 22.821 31.0333 22.7646 31.1944 22.7126C31.3326 22.6679 31.4611 22.6264 31.6762 22.6264C31.9105 22.6264 32.1223 22.7251 32.3058 23.0269C32.3397 23.0861 32.4696 23.2949 32.4696 23.2949C32.4655 23.2975 32.4599 23.3015 32.4528 23.3067L32.4414 23.3149C32.2829 23.4306 31.6069 23.9238 30.3888 23.9238C28.7315 23.9238 27.622 22.8351 27.622 21.03ZM30.098 19.1881C29.4741 19.1881 29.028 19.7748 29.028 20.4094H31.1934C31.1821 19.7946 30.7953 19.1881 30.098 19.1881ZM25.623 19.2926V22.0398C25.623 22.446 25.8066 22.7252 26.2668 22.7252C26.5971 22.7252 26.8992 22.5334 26.9472 22.5024C26.9472 23.735 26.1425 23.924 25.5214 23.924C24.7507 23.924 24.2086 23.4473 24.2086 22.5306V19.2926H23.164V18.2293H24.2086V18.2152C24.2086 16.8359 24.8608 16.568 25.4904 16.568H25.623V18.2293H27.2182L26.806 19.2926H25.623ZM38.9954 18.1248C37.6408 18.1255 36.4981 19.2254 36.4981 21.03C36.4981 22.8351 37.6077 23.9238 39.2621 23.9238C40.4802 23.9238 41.1562 23.4306 41.3147 23.3149L41.3318 23.3025L41.3429 23.2949C41.3429 23.2949 41.2158 23.0861 41.1791 23.0269C40.9928 22.7251 40.7839 22.6264 40.5495 22.6264C40.3344 22.6264 40.2059 22.6679 40.0677 22.7126C39.9067 22.7647 39.7323 22.821 39.392 22.821C38.3078 22.821 37.9323 21.9748 37.9069 21.4136H41.5349V20.9933C41.5349 19.2649 40.5389 18.1255 38.9954 18.1248ZM37.9041 20.4094C37.9041 19.7748 38.3502 19.1882 38.9741 19.1882C39.6715 19.1882 40.0583 19.7946 40.0696 20.4094H37.9041ZM47.9044 21.0244C47.9044 22.7788 48.9462 23.9211 50.6769 23.9211C52.5035 23.9211 53.4522 22.6773 53.4522 21.0244C53.4522 19.2757 52.4217 18.1221 50.6769 18.1221C48.9321 18.1221 47.9044 19.27 47.9044 21.0244ZM52.0433 21.0244C52.0433 22.0878 51.5464 22.8324 50.6769 22.8324C49.7988 22.8324 49.3104 22.099 49.3104 21.0244C49.3104 19.9498 49.7988 19.2108 50.6769 19.2108C51.5549 19.2108 52.0433 19.9611 52.0433 21.0244ZM13.6395 18.5098L17.591 13.6711H14.7761L11.6254 17.8483H11.5774V13.6711H9.25662V23.9238H9.39496C10.3972 23.9238 11.5915 23.4612 11.5915 21.7858V19.4306H11.6395L14.8524 23.794H17.8055L13.6395 18.5098ZM20.8029 14.8191L20.8011 14.8219H20.8039L20.8029 14.8191ZM20.8029 14.8191C21.2642 14.1025 21.3206 12.9588 21.3601 11.7955C21.4024 10.7096 21.6311 9.89162 23.0851 9.88597C23.2242 9.88597 23.3606 9.89387 23.5155 9.90284L23.5156 9.90285C23.7193 9.91464 23.955 9.92828 24.2709 9.92828C26.4025 9.91982 27.7943 9.18648 28.6611 8.70417C26.8909 7.57595 24.3104 6.42799 21.1088 6.29824C21.0351 6.50608 20.7857 7.2009 20.4882 8.02942C19.9419 9.55089 19.2337 11.5232 19.1551 11.7588C19.1568 11.761 19.161 11.7662 19.1678 11.7742C19.229 11.8473 19.4923 12.1614 19.8129 12.7206C20.3343 13.5709 20.6165 14.2919 20.8029 14.8191ZM21.0105 15.4218C21.0103 15.4212 21.01 15.4205 21.0098 15.4199V15.4227C21.01 15.4224 21.0103 15.4221 21.0105 15.4218ZM21.0105 15.4218C21.0498 15.5253 21.0862 15.6121 21.1227 15.6737C21.1792 15.7724 21.2554 15.8147 21.3486 15.8147C21.4079 15.8147 21.4784 15.795 21.5575 15.7583C21.6372 15.7226 22.9656 15.1051 24.5867 14.3515C26.9276 13.2634 29.8787 11.8916 30.5609 11.5783C30.608 11.556 30.6671 11.5285 30.7302 11.4993C30.8905 11.4248 31.076 11.3387 31.151 11.2962C31.2583 11.2342 31.3091 11.1439 31.3091 11.0537C31.3091 11.0029 31.2922 10.9493 31.2639 10.9042C31.12 10.6701 30.3803 9.88596 29.1408 9.02852C28.1583 9.57006 26.6225 10.4049 24.3384 10.4134C24.0404 10.4134 23.8651 10.403 23.7087 10.3937C23.5717 10.3855 23.4492 10.3782 23.2712 10.3796C22.156 10.3824 21.8794 10.859 21.837 11.835C21.8345 11.9167 21.832 12.0112 21.8292 12.1152C21.8258 12.2446 21.8219 12.3884 21.8172 12.5401C21.7806 13.4113 21.679 14.6151 21.0105 15.4218Z" fill="#303C47"/>
</g>
</svg>
