<svg width="144" height="36" viewBox="0 0 144 36" fill="none" xmlns="http://www.w3.org/2000/svg">
<g clip-path="url(#clip0_1123_397259)">
<path d="M15.1205 18.5922C13.1726 17.7289 11.5735 17.0292 11.5735 15.6243C11.5735 14.5438 12.4837 13.7609 14.2841 13.7609C14.9475 13.7609 15.489 13.836 16.0448 13.9325C16.3368 13.9781 16.6487 14.021 16.9095 14.021C18.4831 14.021 19.3705 13.1335 19.9631 11.4498L20.2069 10.7634C19.9518 10.6669 17.3858 9.59717 14.0317 9.59717C8.70139 9.59985 5.8888 12.8306 5.8888 16.1873C5.8888 17.8817 6.44735 19.107 7.32628 20.0722C8.45472 21.3135 10.0652 22.1286 11.5735 22.823C13.7709 23.8418 15.7527 24.5952 15.7527 26.1046C15.7556 27.4479 14.2897 28.2066 12.3334 28.2066C9.64837 28.2066 7.3036 26.7562 7.0059 26.5819L4.80005 30.4856C5.19415 30.6947 8.03227 32.3972 12.702 32.3972C17.6779 32.3945 21.4431 29.7 21.4431 25.547C21.4431 21.394 17.9529 19.8872 15.1205 18.5895V18.5922Z" fill="url(#paint0_linear_1123_397259)"/>
<path d="M34.5846 20.5229L43.6122 10.0586H37.1818L29.9801 19.0885H29.8696V10.0586H24.5704V32.2259H24.888C27.1789 32.2259 29.9093 31.2231 29.9093 27.6037V22.5123H30.0142L37.3547 31.9497H44.0998L34.5846 20.5202V20.5229Z" fill="url(#paint1_linear_1123_397259)"/>
<path d="M136.127 19.6891C133.337 19.6891 131.906 21.4237 131.682 21.6892C130.978 20.4317 129.683 19.6891 127.984 19.6891C125.523 19.6891 124.131 21.0377 123.902 21.2548C123.799 20.8929 123.298 19.9089 121.713 19.9089C121.253 19.9089 120.584 20.0483 120.528 20.0591C120.593 20.3433 120.893 21.716 120.893 23.6088V31.9524H124.123V23.4453C124.188 23.3917 125.396 22.2361 126.847 22.2361C128.299 22.2361 129.025 23.263 129.025 24.6625V31.9524H132.266V23.4426C132.331 23.3836 133.516 22.2361 134.99 22.2361C136.465 22.2361 137.145 23.263 137.145 24.6625V31.9524H140.4V24.1879C140.4 21.4613 138.756 19.6891 136.13 19.6891H136.127Z" fill="url(#paint2_linear_1123_397259)"/>
<path d="M100.712 29.7458C98.5202 29.7458 96.9522 28.105 96.9522 25.9628C96.9522 23.5766 98.7328 22.153 100.712 22.153C101.778 22.153 102.226 22.4613 102.935 22.4613C103.692 22.4613 104.091 22.1155 104.466 21.4291C104.67 21.0484 104.792 20.8285 104.792 20.8285C104.633 20.732 102.994 19.681 100.221 19.681C96.1499 19.681 93.7115 22.4399 93.7115 25.9628C93.7115 29.8048 96.4986 32.2178 100.221 32.2178C102.918 32.2178 104.554 31.1775 104.843 30.9818L103.723 28.8906C103.473 29.0407 102.319 29.7458 100.712 29.7458Z" fill="url(#paint3_linear_1123_397259)"/>
<path d="M62.7985 24.6276C62.7985 23.2549 63.8164 21.9841 65.2425 21.9841C66.8388 21.9841 67.7177 23.2951 67.7432 24.6276H62.7985ZM65.2907 19.6891C62.1974 19.6891 59.5833 22.0699 59.5833 25.9682C59.5833 29.8665 62.1152 32.2205 65.9003 32.2205C68.9057 32.2205 70.4679 30.9791 70.655 30.8639C70.655 30.8639 70.3602 30.4108 70.2808 30.2874C69.8555 29.6332 69.3763 29.4241 68.8433 29.4241C67.7801 29.4241 67.644 29.8397 66.2008 29.8397C63.7228 29.8397 62.8694 28.0139 62.807 26.7966H71.0974V25.8877C71.0974 22.1476 68.8206 19.6891 65.2907 19.6891Z" fill="url(#paint4_linear_1123_397259)"/>
<path d="M76.6233 16.0803C76.6233 14.6701 75.6281 13.5789 74.0829 13.5789H73.3911V29.8021C73.3911 31.2955 74.3664 32.2205 76.0676 32.2205C78.1685 32.2205 78.7951 30.8102 78.7951 29.4831C78.7072 29.5287 78.2621 29.7003 77.8141 29.7003C77.0656 29.7003 76.6233 29.2901 76.6233 28.5769V16.0803Z" fill="url(#paint5_linear_1123_397259)"/>
<path d="M55.0185 22.212H57.7177L58.659 19.9116H55.0185V16.3189C55.0185 16.3189 54.7293 16.3189 54.7179 16.3189C53.2805 16.3189 51.7891 16.8981 51.7891 19.8848V19.9116H49.399V22.212H51.7891V29.2069C51.7891 31.1909 53.0253 32.2205 54.786 32.2205C56.2093 32.2205 58.0409 31.813 58.0409 29.1506C57.9303 29.2123 57.2442 29.6332 56.4872 29.6332C55.4353 29.6332 55.0185 29.0273 55.0185 28.1533V22.212Z" fill="url(#paint6_linear_1123_397259)"/>
<path d="M83.0707 24.6276C83.0707 23.2549 84.0858 21.9841 85.5119 21.9841C87.1082 21.9841 87.9871 23.2951 88.0126 24.6276H83.0707ZM85.5601 19.6891C82.4668 19.6891 79.8584 22.0699 79.8584 25.9682C79.8584 29.8665 82.3903 32.2205 86.1754 32.2205C89.1808 32.2205 90.7345 30.9791 90.9273 30.8639C90.9273 30.8639 90.6353 30.4108 90.553 30.2874C90.1306 29.6332 89.6486 29.4241 89.1155 29.4241C88.0495 29.4241 87.9162 29.8397 86.4702 29.8397C83.995 29.8397 83.1359 28.0139 83.0792 26.7966H91.3639V25.8877C91.3639 22.1476 89.0872 19.6891 85.5573 19.6891" fill="url(#paint7_linear_1123_397259)"/>
<path d="M112.246 29.8692C114.228 29.8692 115.37 28.2578 115.37 25.9601C115.37 23.6624 114.256 22.035 112.246 22.035C110.236 22.035 109.127 23.633 109.127 25.9601C109.127 28.2873 110.241 29.8692 112.246 29.8692ZM112.246 32.2205C108.291 32.2205 105.912 29.7512 105.912 25.9601C105.912 22.1691 108.259 19.6837 112.246 19.6837C116.232 19.6837 118.585 22.1798 118.585 25.9601C118.585 29.5287 116.416 32.2205 112.246 32.2205Z" fill="url(#paint8_linear_1123_397259)"/>
</g>
<defs>
<linearGradient id="paint0_linear_1123_397259" x1="4.80005" y1="20.9972" x2="140.4" y2="20.9972" gradientUnits="userSpaceOnUse">
<stop stop-color="#0E306D"/>
<stop offset="1" stop-color="#4130DF"/>
</linearGradient>
<linearGradient id="paint1_linear_1123_397259" x1="4.80005" y1="20.9972" x2="140.4" y2="20.9972" gradientUnits="userSpaceOnUse">
<stop stop-color="#0E306D"/>
<stop offset="1" stop-color="#4130DF"/>
</linearGradient>
<linearGradient id="paint2_linear_1123_397259" x1="4.80005" y1="20.9972" x2="140.4" y2="20.9972" gradientUnits="userSpaceOnUse">
<stop stop-color="#0E306D"/>
<stop offset="1" stop-color="#4130DF"/>
</linearGradient>
<linearGradient id="paint3_linear_1123_397259" x1="4.80005" y1="20.9972" x2="140.4" y2="20.9972" gradientUnits="userSpaceOnUse">
<stop stop-color="#0E306D"/>
<stop offset="1" stop-color="#4130DF"/>
</linearGradient>
<linearGradient id="paint4_linear_1123_397259" x1="4.80005" y1="20.9972" x2="140.4" y2="20.9972" gradientUnits="userSpaceOnUse">
<stop stop-color="#0E306D"/>
<stop offset="1" stop-color="#4130DF"/>
</linearGradient>
<linearGradient id="paint5_linear_1123_397259" x1="4.80005" y1="20.9972" x2="140.4" y2="20.9972" gradientUnits="userSpaceOnUse">
<stop stop-color="#0E306D"/>
<stop offset="1" stop-color="#4130DF"/>
</linearGradient>
<linearGradient id="paint6_linear_1123_397259" x1="4.80005" y1="20.9972" x2="140.4" y2="20.9972" gradientUnits="userSpaceOnUse">
<stop stop-color="#0E306D"/>
<stop offset="1" stop-color="#4130DF"/>
</linearGradient>
<linearGradient id="paint7_linear_1123_397259" x1="4.80005" y1="20.9972" x2="140.4" y2="20.9972" gradientUnits="userSpaceOnUse">
<stop stop-color="#0E306D"/>
<stop offset="1" stop-color="#4130DF"/>
</linearGradient>
<linearGradient id="paint8_linear_1123_397259" x1="4.80005" y1="20.9972" x2="140.4" y2="20.9972" gradientUnits="userSpaceOnUse">
<stop stop-color="#0E306D"/>
<stop offset="1" stop-color="#4130DF"/>
</linearGradient>
<clipPath id="clip0_1123_397259">
<rect width="135.6" height="22.8" fill="white" transform="translate(4.80005 9.6001)"/>
</clipPath>
</defs>
</svg>
