<svg width="20" height="20" viewBox="0 0 20 20" fill="none" xmlns="http://www.w3.org/2000/svg">
<path d="M9.54091 15.7672L4.8737 14.5094C4.21059 14.3307 3.70665 13.7907 3.57413 13.1169L1.90935 4.65124C1.66213 3.39409 2.7686 2.28762 4.02575 2.53484L12.4914 4.19962C13.1652 4.33213 13.7052 4.83607 13.8839 5.49919L15.1418 10.1664" stroke="#434860" stroke-width="1.41667" stroke-linecap="round"/>
<path d="M9.49028 7.84889C10.1187 8.47735 10.1183 9.49314 9.49371 10.1177C8.86912 10.7423 7.85332 10.7428 7.22486 10.1143C6.5964 9.48585 6.59685 8.47005 7.22144 7.84546C7.84603 7.22087 8.86182 7.22043 9.49028 7.84889Z" stroke="#434860" stroke-width="1.41667" stroke-linecap="round"/>
<path d="M10.3482 17.5071C9.64433 16.8032 9.64433 15.6619 10.3482 14.958L14.3335 10.9728C15.0374 10.2688 16.1786 10.2688 16.8826 10.9728L17.4621 11.5523C18.166 12.2562 18.166 13.3974 17.4621 14.1013L13.4768 18.0866C12.7729 18.7905 11.6317 18.7905 10.9277 18.0866L10.3482 17.5071Z" stroke="#434860" stroke-width="1.41667" stroke-linecap="round"/>
<path d="M11.95 12.5748L9.99463 10.6194" stroke="#434860" stroke-width="1.41667" stroke-linecap="round"/>
</svg>
