<svg width="20" height="20" viewBox="0 0 20 20" fill="none" xmlns="http://www.w3.org/2000/svg">
<path fill-rule="evenodd" clip-rule="evenodd" d="M15.6 5.09H4.4C4.28402 5.09 4.19 5.18402 4.19 5.3V15.1C4.19 15.216 4.28402 15.31 4.4 15.31H15.6C15.716 15.31 15.81 15.216 15.81 15.1V5.3C15.81 5.18402 15.716 5.09 15.6 5.09ZM4.4 3.9C3.6268 3.9 3 4.5268 3 5.3V15.1C3 15.8732 3.6268 16.5 4.4 16.5H15.6C16.3732 16.5 17 15.8732 17 15.1V5.3C17 4.5268 16.3732 3.9 15.6 3.9H4.4Z" fill="#A0A4B6"/>
<path fill-rule="evenodd" clip-rule="evenodd" d="M16.3 8.8H3.7V7.61H16.3V8.8Z" fill="#A0A4B6"/>
<path fill-rule="evenodd" clip-rule="evenodd" d="M7.2 2.5C7.52861 2.5 7.795 2.76639 7.795 3.095V5.405C7.795 5.73361 7.52861 6 7.2 6C6.87139 6 6.605 5.73361 6.605 5.405V3.095C6.605 2.76639 6.87139 2.5 7.2 2.5Z" fill="#A0A4B6"/>
<path fill-rule="evenodd" clip-rule="evenodd" d="M12.8 2.5C13.1286 2.5 13.395 2.76639 13.395 3.095V5.405C13.395 5.73361 13.1286 6 12.8 6C12.4714 6 12.205 5.73361 12.205 5.405V3.095C12.205 2.76639 12.4714 2.5 12.8 2.5Z" fill="#A0A4B6"/>
</svg>
