<svg width="24" height="24" viewBox="0 0 24 24" fill="none" xmlns="http://www.w3.org/2000/svg">
<path d="M3.75944 13.5243L4.17355 14.2666L3.75944 13.5243C2.69458 14.1183 2.33068 15.4745 2.95631 16.5216L3.68598 16.0856L2.95631 16.5216L3.45182 17.3509C4.07366 18.3916 5.41047 18.749 6.46892 18.1585L6.05481 17.4162L6.46892 18.1585C6.65852 18.0527 6.96314 18.0567 7.25151 18.2627C7.73997 18.6115 8.27064 18.9078 8.83461 19.1432C9.13204 19.2673 9.26825 19.5046 9.26825 19.6913C9.26825 20.8842 10.2359 21.85 11.428 21.85H12.5721C13.7642 21.85 14.7318 20.8842 14.7318 19.6913C14.7318 19.5045 14.868 19.2673 15.1654 19.1432C15.7294 18.9078 16.2601 18.6115 16.7485 18.2627C17.0369 18.0567 17.3415 18.0527 17.5311 18.1585C18.5895 18.749 19.9263 18.3916 20.5482 17.3509L21.0437 16.5216C21.6693 15.4745 21.3054 14.1183 20.2406 13.5243C20.0746 13.4317 19.9291 13.1894 19.9669 12.8545C19.9986 12.5736 20.0149 12.2885 20.0149 12C20.0149 11.7115 19.9986 11.4264 19.9669 11.1456C19.9291 10.8106 20.0746 10.5683 20.2406 10.4757C21.3054 9.88168 21.6693 8.52547 21.0437 7.47842L20.5482 6.64912C19.9264 5.60841 18.5895 5.25102 17.5311 5.8415C17.3415 5.94727 17.0369 5.9433 16.7485 5.73734C16.26 5.38848 15.7294 5.09218 15.1655 4.85686C14.868 4.73275 14.7318 4.49547 14.7318 4.3087C14.7318 3.11583 13.7642 2.15 12.572 2.15H11.428C10.2359 2.15 9.26825 3.11583 9.26825 4.30869C9.26825 4.49546 9.13203 4.73273 8.83461 4.85684C8.27065 5.09217 7.73998 5.38848 7.25151 5.73734C6.96314 5.9433 6.65853 5.94727 6.46892 5.8415C5.41047 5.25102 4.07366 5.60841 3.45182 6.64912L4.18149 7.08511L3.45182 6.64912L2.95631 7.4784C2.33068 8.52546 2.69458 9.88168 3.75944 10.4757C3.92543 10.5683 4.07091 10.8106 4.0331 11.1456C4.0014 11.4264 3.98516 11.7115 3.98516 12C3.98516 12.2885 4.0014 12.5736 4.0331 12.8544C4.07091 13.1894 3.92543 13.4317 3.75944 13.5243Z" stroke="#434860" stroke-width="1.7"/>
<path d="M12.0003 15.0998C13.7157 15.0998 15.117 13.7177 15.117 11.9998C15.117 10.2818 13.7157 8.89976 12.0003 8.89976C10.2849 8.89976 8.88364 10.2818 8.88364 11.9998C8.88364 13.7177 10.2849 15.0998 12.0003 15.0998Z" stroke="#434860" stroke-width="1.7"/>
</svg>
