<svg width="32" height="33" viewBox="0 0 32 33" fill="none" xmlns="http://www.w3.org/2000/svg">
<path d="M7 28.5459C7 29.6505 7.89543 30.5459 9 30.5459H26C27.1046 30.5459 28 29.6505 28 28.5459V11.6071C28 11.0531 27.7702 10.5239 27.3654 10.1457L21.9481 5.08448C21.5777 4.7384 21.0897 4.5459 20.5827 4.5459H9C7.89543 4.5459 7 5.44133 7 6.5459V28.5459Z" fill="#EFEAF7" fill-opacity="0.6"/>
<path d="M18.5 3.5459V10.5459C18.5 11.0982 18.9477 11.5459 19.5 11.5459H26.5" stroke="#DBCCEC"/>
<path d="M7 29.0459C6.17157 29.0459 5.5 28.3743 5.5 27.5459V4.5459C5.5 3.71747 6.17157 3.0459 7 3.0459H19.2721C19.6501 3.0459 20.0141 3.18856 20.2914 3.44536L26.0192 8.74998C26.3258 9.03386 26.5 9.43273 26.5 9.85052V27.5459C26.5 28.3743 25.8284 29.0459 25 29.0459H7Z" stroke="#9747FF"/>
<path d="M18.5 2.5459V9.5459C18.5 10.0982 18.9477 10.5459 19.5 10.5459H26.5" stroke="#9747FF"/>
<path d="M8.80629 16.2799C8.96829 16.0519 9.19029 15.8629 9.47229 15.7129C9.76029 15.5569 10.0873 15.4789 10.4533 15.4789C10.8793 15.4789 11.2633 15.5839 11.6053 15.7939C11.9533 16.0039 12.2263 16.3039 12.4243 16.6939C12.6283 17.0779 12.7303 17.5249 12.7303 18.0349C12.7303 18.5449 12.6283 18.9979 12.4243 19.3939C12.2263 19.7839 11.9533 20.0869 11.6053 20.3029C11.2633 20.5189 10.8793 20.6269 10.4533 20.6269C10.0873 20.6269 9.76329 20.5519 9.48129 20.4019C9.20529 20.2519 8.98029 20.0629 8.80629 19.8349V22.9219H7.54629V15.5599H8.80629V16.2799ZM11.4433 18.0349C11.4433 17.7349 11.3803 17.4769 11.2543 17.2609C11.1343 17.0389 10.9723 16.8709 10.7683 16.7569C10.5703 16.6429 10.3543 16.5859 10.1203 16.5859C9.89229 16.5859 9.67629 16.6459 9.47229 16.7659C9.27429 16.8799 9.11229 17.0479 8.98629 17.2699C8.86629 17.4919 8.80629 17.7529 8.80629 18.0529C8.80629 18.3529 8.86629 18.6139 8.98629 18.8359C9.11229 19.0579 9.27429 19.2289 9.47229 19.3489C9.67629 19.4629 9.89229 19.5199 10.1203 19.5199C10.3543 19.5199 10.5703 19.4599 10.7683 19.3399C10.9723 19.2199 11.1343 19.0489 11.2543 18.8269C11.3803 18.6049 11.4433 18.3409 11.4433 18.0349ZM16.4089 15.4879C17.0029 15.4879 17.4829 15.6769 17.8489 16.0549C18.2149 16.4269 18.3979 16.9489 18.3979 17.6209V20.5459H17.1379V17.7919C17.1379 17.3959 17.0389 17.0929 16.8409 16.8829C16.6429 16.6669 16.3729 16.5589 16.0309 16.5589C15.6829 16.5589 15.4069 16.6669 15.2029 16.8829C15.0049 17.0929 14.9059 17.3959 14.9059 17.7919V20.5459H13.6459V15.5599H14.9059V16.1809C15.0739 15.9649 15.2869 15.7969 15.5449 15.6769C15.8089 15.5509 16.0969 15.4879 16.4089 15.4879ZM21.5491 15.4789C21.9211 15.4789 22.2481 15.5539 22.5301 15.7039C22.8121 15.8479 23.0341 16.0369 23.1961 16.2709V15.5599H24.4651V20.5819C24.4651 21.0439 24.3721 21.4549 24.1861 21.8149C24.0001 22.1809 23.7211 22.4689 23.3491 22.6789C22.9771 22.8949 22.5271 23.0029 21.9991 23.0029C21.2911 23.0029 20.7091 22.8379 20.2531 22.5079C19.8031 22.1779 19.5481 21.7279 19.4881 21.1579H20.7391C20.8051 21.3859 20.9461 21.5659 21.1621 21.6979C21.3841 21.8359 21.6511 21.9049 21.9631 21.9049C22.3291 21.9049 22.6261 21.7939 22.8541 21.5719C23.0821 21.3559 23.1961 21.0259 23.1961 20.5819V19.8079C23.0341 20.0419 22.8091 20.2369 22.5211 20.3929C22.2391 20.5489 21.9151 20.6269 21.5491 20.6269C21.1291 20.6269 20.7451 20.5189 20.3971 20.3029C20.0491 20.0869 19.7731 19.7839 19.5691 19.3939C19.3711 18.9979 19.2721 18.5449 19.2721 18.0349C19.2721 17.5309 19.3711 17.0839 19.5691 16.6939C19.7731 16.3039 20.0461 16.0039 20.3881 15.7939C20.7361 15.5839 21.1231 15.4789 21.5491 15.4789ZM23.1961 18.0529C23.1961 17.7469 23.1361 17.4859 23.0161 17.2699C22.8961 17.0479 22.7341 16.8799 22.5301 16.7659C22.3261 16.6459 22.1071 16.5859 21.8731 16.5859C21.6391 16.5859 21.4231 16.6429 21.2251 16.7569C21.0271 16.8709 20.8651 17.0389 20.7391 17.2609C20.6191 17.4769 20.5591 17.7349 20.5591 18.0349C20.5591 18.3349 20.6191 18.5989 20.7391 18.8269C20.8651 19.0489 21.0271 19.2199 21.2251 19.3399C21.4291 19.4599 21.6451 19.5199 21.8731 19.5199C22.1071 19.5199 22.3261 19.4629 22.5301 19.3489C22.7341 19.2289 22.8961 19.0609 23.0161 18.8449C23.1361 18.6229 23.1961 18.3589 23.1961 18.0529Z" fill="#9747FF"/>
</svg>
