<svg width="20" height="21" viewBox="0 0 20 21" fill="none" xmlns="http://www.w3.org/2000/svg">
<path d="M9.45974 6.56155L9.99799 7.11497L10.5356 6.56094L11.2735 5.80051C11.2737 5.80037 11.2738 5.80022 11.274 5.80008C12.8718 4.15764 15.4489 4.15779 17.0466 5.80051C18.6514 7.45068 18.6508 10.1278 17.047 11.7866C17.0468 11.7868 17.0466 11.7871 17.0464 11.7873L9.99834 19.0301L2.95427 11.7872C2.95427 11.7872 2.95427 11.7872 2.95427 11.7872C1.34857 10.1361 1.34858 7.45085 2.95427 5.79983L2.95427 5.79983C4.54859 4.16049 7.12461 4.1605 8.71888 5.79982L8.7189 5.79984L9.45974 6.56155Z" stroke="#5755FF" stroke-width="1.5"/>
</svg>
