<svg width="24" height="25" viewBox="0 0 24 25" fill="none" xmlns="http://www.w3.org/2000/svg">
<path d="M5.5 20.5459C5.5 21.6505 6.39543 22.5459 7.5 22.5459H17.5C18.6046 22.5459 19.5 21.6505 19.5 20.5459V9.67937C19.5 9.13845 19.2809 8.6206 18.8927 8.24393L15.663 5.11047C15.2898 4.7484 14.7903 4.5459 14.2703 4.5459H7.5C6.39543 4.5459 5.5 5.44133 5.5 6.5459V20.5459Z" fill="#E3F7EC" fill-opacity="0.6"/>
<path d="M13.5 4.5459V8.5459C13.5 9.09818 13.9477 9.5459 14.5 9.5459H18.5" stroke="#CEEBDB"/>
<path d="M6.5 21.0459C5.67157 21.0459 5 20.3743 5 19.5459V5.5459C5 4.71747 5.67157 4.0459 6.5 4.0459H13.9945C14.3666 4.0459 14.7255 4.18423 15.0013 4.43402L18.5068 7.60837C18.8209 7.89273 19 8.29661 19 8.72025V19.5459C19 20.3743 18.3284 21.0459 17.5 21.0459H6.5Z" stroke="#00813B"/>
<path d="M13.5 3.5459V7.5459C13.5 8.09818 13.9477 8.5459 14.5 8.5459H18.5" stroke="#00813B"/>
<path d="M13.298 17.0918L11.939 14.9768L10.706 17.0918H9.28404L11.264 13.9238L9.25704 10.8098H10.706L12.065 12.9158L13.289 10.8098H14.711L12.74 13.9688L14.747 17.0918H13.298Z" fill="#00813B"/>
</svg>
