<svg width="24" height="25" viewBox="0 0 24 25" fill="none" xmlns="http://www.w3.org/2000/svg">
<path fill-rule="evenodd" clip-rule="evenodd" d="M4.3 6.81836C4.3 6.98404 4.16569 7.11836 4 7.11836C3.83431 7.11836 3.7 6.98404 3.7 6.81836C3.7 6.65267 3.83431 6.51836 4 6.51836C4.16569 6.51836 4.3 6.65267 4.3 6.81836ZM6 6.81836C6 7.92293 5.10457 8.81836 4 8.81836C2.89543 8.81836 2 7.92293 2 6.81836C2 5.71379 2.89543 4.81836 4 4.81836C5.10457 4.81836 6 5.71379 6 6.81836ZM4.3 12.8184C4.3 12.984 4.16569 13.1184 4 13.1184C3.83431 13.1184 3.7 12.984 3.7 12.8184C3.7 12.6527 3.83431 12.5184 4 12.5184C4.16569 12.5184 4.3 12.6527 4.3 12.8184ZM6 12.8184C6 13.9229 5.10457 14.8184 4 14.8184C2.89543 14.8184 2 13.9229 2 12.8184C2 11.7138 2.89543 10.8184 4 10.8184C5.10457 10.8184 6 11.7138 6 12.8184ZM4 19.1184C4.16569 19.1184 4.3 18.984 4.3 18.8184C4.3 18.6527 4.16569 18.5184 4 18.5184C3.83431 18.5184 3.7 18.6527 3.7 18.8184C3.7 18.984 3.83431 19.1184 4 19.1184ZM4 20.8184C5.10457 20.8184 6 19.9229 6 18.8184C6 17.7138 5.10457 16.8184 4 16.8184C2.89543 16.8184 2 17.7138 2 18.8184C2 19.9229 2.89543 20.8184 4 20.8184ZM8.85 5.96826C8.38056 5.96826 8 6.34882 8 6.81826C8 7.2877 8.38056 7.66826 8.85 7.66826H21.15C21.6194 7.66826 22 7.2877 22 6.81826C22 6.34882 21.6194 5.96826 21.15 5.96826H8.85ZM8 18.8183C8 18.3488 8.38056 17.9683 8.85 17.9683H21.15C21.6194 17.9683 22 18.3488 22 18.8183C22 19.2877 21.6194 19.6683 21.15 19.6683H8.85C8.38056 19.6683 8 19.2877 8 18.8183ZM8.85 11.9683C8.38056 11.9683 8 12.3488 8 12.8183C8 13.2877 8.38056 13.6683 8.85 13.6683L21.15 13.6683C21.6194 13.6683 22 13.2877 22 12.8183C22 12.3488 21.6194 11.9683 21.15 11.9683L8.85 11.9683Z" fill="#434860"/>
</svg>
