<svg width="20" height="20" viewBox="0 0 20 20" fill="none" xmlns="http://www.w3.org/2000/svg">
<path fill-rule="evenodd" clip-rule="evenodd" d="M14.1978 4.81808C13.4887 4.14727 12.3268 4.14727 11.6177 4.81808L11.6177 4.81808L5.49959 10.6062C4.34458 11.6989 4.34458 13.4568 5.49959 14.5495C6.67244 15.659 8.58631 15.659 9.75915 14.5495L15.8772 8.76142C16.1046 8.54634 16.4632 8.55628 16.6783 8.78362C16.8934 9.01097 16.8835 9.36962 16.6561 9.5847L10.538 15.3728C8.92822 16.8957 6.33053 16.8957 4.72072 15.3728L5.11016 14.9611L4.72072 15.3728C3.09309 13.8329 3.09309 11.3227 4.72072 9.78287L5.11016 10.1945L4.72072 9.78286L10.8388 3.9948C10.8388 3.9948 10.8388 3.9948 10.8388 3.9948C11.9849 2.91059 13.8306 2.91059 14.9766 3.9948C16.1405 5.09587 16.1405 6.89476 14.9766 7.99583L14.6026 7.60046L14.9766 7.99583L9.09847 13.5569L9.09846 13.5569C8.4162 14.2023 7.32238 14.2023 6.64013 13.5569C5.94004 12.8946 5.94004 11.807 6.64013 11.1447L11.7985 6.26462C12.0258 6.04954 12.3845 6.05948 12.5996 6.28682C12.8147 6.51417 12.8047 6.87282 12.5774 7.0879L7.41899 11.968L7.41898 11.968C7.19153 12.1832 7.19153 12.5184 7.41898 12.7336C7.66427 12.9656 8.0743 12.9656 8.31959 12.7336M8.3196 12.7336L14.1978 7.17255C14.1978 7.17255 14.1978 7.17255 14.1978 7.17254C14.889 6.51859 14.889 5.47203 14.1978 4.81808L14.5872 4.40644L14.1978 4.81808" fill="#455DD7"/>
</svg>
