<svg width="11" height="10" viewBox="0 0 11 10" fill="none" xmlns="http://www.w3.org/2000/svg">
<path fill-rule="evenodd" clip-rule="evenodd" d="M6.30744 0.177828C6.06401 -0.0592754 5.66934 -0.0592762 5.42591 0.177827C5.18249 0.414929 5.18249 0.799349 5.42591 1.03645L9.49514 5L5.42591 8.96355C5.18249 9.20065 5.18249 9.58507 5.42591 9.82217C5.66934 10.0593 6.06401 10.0593 6.30744 9.82217L10.8174 5.42931C11.0609 5.19221 11.0609 4.80779 10.8174 4.57069L6.30744 0.177828ZM1.0641 0.177828C0.820671 -0.0592754 0.425998 -0.0592762 0.182571 0.177827C-0.0608559 0.414929 -0.0608568 0.799349 0.18257 1.03645L4.2518 5L0.18257 8.96355C-0.0608568 9.20065 -0.0608559 9.58507 0.182571 9.82217C0.425998 10.0593 0.820671 10.0593 1.0641 9.82217L5.57409 5.42931C5.81751 5.19221 5.81751 4.80779 5.57409 4.57069L1.0641 0.177828Z" fill="#3A4A5C"/>
</svg>
