<svg width="20" height="21" viewBox="0 0 20 21" fill="none" xmlns="http://www.w3.org/2000/svg">
<path d="M3.5 18.75C3.5 19.8546 4.39543 20.75 5.5 20.75H15.5C16.6046 20.75 17.5 19.8546 17.5 18.75V7.88347C17.5 7.34255 17.2809 6.8247 16.8927 6.44804L13.663 3.31457C13.2898 2.9525 12.7903 2.75 12.2703 2.75H5.5C4.39543 2.75 3.5 3.64543 3.5 4.75V18.75Z" fill="#E3F7EC" fill-opacity="0.6"/>
<path d="M11.5 2.75V6.75C11.5 7.30228 11.9477 7.75 12.5 7.75H16.5" stroke="#CEEBDB"/>
<path d="M4.5 19.25C3.67157 19.25 3 18.5784 3 17.75V3.75C3 2.92157 3.67157 2.25 4.5 2.25H11.9945C12.3666 2.25 12.7255 2.38833 13.0013 2.63812L16.5068 5.81247C16.8209 6.09683 17 6.50071 17 6.92435V17.75C17 18.5784 16.3284 19.25 15.5 19.25H4.5Z" stroke="#00813B"/>
<path d="M11.5 1.75V5.75C11.5 6.30228 11.9477 6.75 12.5 6.75H16.5" stroke="#00813B"/>
<path d="M11.298 15.2969L9.93904 13.1819L8.70604 15.2969H7.28404L9.26404 12.1289L7.25704 9.01487H8.70604L10.065 11.1209L11.289 9.01487H12.711L10.74 12.1739L12.747 15.2969H11.298Z" fill="#00813B"/>
</svg>
