<svg width="20" height="20" viewBox="0 0 20 20" fill="none" xmlns="http://www.w3.org/2000/svg">
<path fill-rule="evenodd" clip-rule="evenodd" d="M15.5333 8.96617V15.3337C15.5333 15.4441 15.4437 15.5337 15.3333 15.5337H12.6666V11.333C12.6666 10.5966 12.0696 9.99968 11.3333 9.99968H8.66659C7.93021 9.99968 7.33325 10.5966 7.33325 11.333V15.5337H4.66659C4.55613 15.5337 4.46659 15.4441 4.46659 15.3337V8.96617C4.46659 8.90568 4.49396 8.84844 4.54106 8.81047L9.87439 4.51064C9.94765 4.45158 10.0522 4.45158 10.1254 4.51064L15.4588 8.81047C15.5059 8.84844 15.5333 8.90568 15.5333 8.96617ZM3.33325 8.96617C3.33325 8.5629 3.51578 8.18128 3.82973 7.92817L9.16306 3.62834C9.65148 3.23456 10.3484 3.23456 10.8368 3.62834L16.1701 7.92817C16.4841 8.18128 16.6666 8.56289 16.6666 8.96617V15.3337C16.6666 16.07 16.0696 16.667 15.3333 16.667H4.66659C3.93021 16.667 3.33325 16.07 3.33325 15.3337V8.96617ZM8.66659 11.133H11.3333C11.4437 11.133 11.5333 11.2226 11.5333 11.333V15.533H8.46659V11.333C8.46659 11.2226 8.55613 11.133 8.66659 11.133Z" fill="#A0A4B6"/>
</svg>
