<svg width="32" height="33" viewBox="0 0 32 33" fill="none" xmlns="http://www.w3.org/2000/svg">
<path d="M7 28.5459C7 29.6505 7.89543 30.5459 9 30.5459H26C27.1046 30.5459 28 29.6505 28 28.5459V11.6071C28 11.0531 27.7702 10.5239 27.3654 10.1457L21.9481 5.08448C21.5777 4.7384 21.0897 4.5459 20.5827 4.5459H9C7.89543 4.5459 7 5.44133 7 6.5459V28.5459Z" fill="#F7E3E3" fill-opacity="0.6"/>
<path d="M18.5 3.5459V10.5459C18.5 11.0982 18.9477 11.5459 19.5 11.5459H26.5" stroke="#F9D5D5"/>
<path d="M7 29.0459C6.17157 29.0459 5.5 28.3743 5.5 27.5459V4.5459C5.5 3.71747 6.17157 3.0459 7 3.0459H19.2721C19.6501 3.0459 20.0141 3.18856 20.2914 3.44536L26.0192 8.74998C26.3258 9.03386 26.5 9.43273 26.5 9.85052V27.5459C26.5 28.3743 25.8284 29.0459 25 29.0459H7Z" stroke="#C30000"/>
<path d="M18.5 2.5459V9.5459C18.5 10.0982 18.9477 10.5459 19.5 10.5459H26.5" stroke="#C30000"/>
<path d="M10.2301 16.2799C10.3921 16.0519 10.6141 15.8629 10.8961 15.7129C11.1841 15.5569 11.5111 15.4789 11.8771 15.4789C12.3031 15.4789 12.6871 15.5839 13.0291 15.7939C13.3771 16.0039 13.6501 16.3039 13.8481 16.6939C14.0521 17.0779 14.1541 17.5249 14.1541 18.0349C14.1541 18.5449 14.0521 18.9979 13.8481 19.3939C13.6501 19.7839 13.3771 20.0869 13.0291 20.3029C12.6871 20.5189 12.3031 20.6269 11.8771 20.6269C11.5111 20.6269 11.1871 20.5519 10.9051 20.4019C10.6291 20.2519 10.4041 20.0629 10.2301 19.8349V22.9219H8.97012V15.5599H10.2301V16.2799ZM12.8671 18.0349C12.8671 17.7349 12.8041 17.4769 12.6781 17.2609C12.5581 17.0389 12.3961 16.8709 12.1921 16.7569C11.9941 16.6429 11.7781 16.5859 11.5441 16.5859C11.3161 16.5859 11.1001 16.6459 10.8961 16.7659C10.6981 16.8799 10.5361 17.0479 10.4101 17.2699C10.2901 17.4919 10.2301 17.7529 10.2301 18.0529C10.2301 18.3529 10.2901 18.6139 10.4101 18.8359C10.5361 19.0579 10.6981 19.2289 10.8961 19.3489C11.1001 19.4629 11.3161 19.5199 11.5441 19.5199C11.7781 19.5199 11.9941 19.4599 12.1921 19.3399C12.3961 19.2199 12.5581 19.0489 12.6781 18.8269C12.8041 18.6049 12.8671 18.3409 12.8671 18.0349ZM14.7457 18.0349C14.7457 17.5309 14.8447 17.0839 15.0427 16.6939C15.2467 16.3039 15.5227 16.0039 15.8707 15.7939C16.2187 15.5839 16.6057 15.4789 17.0317 15.4789C17.3557 15.4789 17.6647 15.5509 17.9587 15.6949C18.2527 15.8329 18.4867 16.0189 18.6607 16.2529V13.8859H19.9387V20.5459H18.6607V19.8079C18.5047 20.0539 18.2857 20.2519 18.0037 20.4019C17.7217 20.5519 17.3947 20.6269 17.0227 20.6269C16.6027 20.6269 16.2187 20.5189 15.8707 20.3029C15.5227 20.0869 15.2467 19.7839 15.0427 19.3939C14.8447 18.9979 14.7457 18.5449 14.7457 18.0349ZM18.6697 18.0529C18.6697 17.7469 18.6097 17.4859 18.4897 17.2699C18.3697 17.0479 18.2077 16.8799 18.0037 16.7659C17.7997 16.6459 17.5807 16.5859 17.3467 16.5859C17.1127 16.5859 16.8967 16.6429 16.6987 16.7569C16.5007 16.8709 16.3387 17.0389 16.2127 17.2609C16.0927 17.4769 16.0327 17.7349 16.0327 18.0349C16.0327 18.3349 16.0927 18.5989 16.2127 18.8269C16.3387 19.0489 16.5007 19.2199 16.6987 19.3399C16.9027 19.4599 17.1187 19.5199 17.3467 19.5199C17.5807 19.5199 17.7997 19.4629 18.0037 19.3489C18.2077 19.2289 18.3697 19.0609 18.4897 18.8449C18.6097 18.6229 18.6697 18.3589 18.6697 18.0529ZM23.4553 16.5949H22.5823V20.5459H21.3043V16.5949H20.7373V15.5599H21.3043V15.3079C21.3043 14.6959 21.4783 14.2459 21.8263 13.9579C22.1743 13.6699 22.6993 13.5349 23.4013 13.5529V14.6149C23.0953 14.6089 22.8823 14.6599 22.7623 14.7679C22.6423 14.8759 22.5823 15.0709 22.5823 15.3529V15.5599H23.4553V16.5949Z" fill="#C30000"/>
</svg>
