<svg width="19" height="18" viewBox="0 0 19 18" fill="none" xmlns="http://www.w3.org/2000/svg">
<path opacity="0.6" fill-rule="evenodd" clip-rule="evenodd" d="M2.5 0C1.39543 0 0.5 0.89543 0.5 2V16C0.5 17.1046 1.39543 18 2.5 18H16.5C17.6046 18 18.5 17.1046 18.5 16V2C18.5 0.895431 17.6046 0 16.5 0H2.5ZM14.6009 6.60104C14.9329 6.26909 14.9329 5.7309 14.6009 5.39895C14.269 5.06701 13.7308 5.06701 13.3989 5.39895L7.9999 10.7979L5.60094 8.39895C5.269 8.06701 4.73081 8.06701 4.39886 8.39895C4.06692 8.7309 4.06692 9.26909 4.39886 9.60104L7.39886 12.601C7.73081 12.933 8.269 12.933 8.60094 12.601L14.6009 6.60104Z" fill="#5755FF"/>
</svg>
