<svg width="20" height="21" viewBox="0 0 20 21" fill="none" xmlns="http://www.w3.org/2000/svg">
<path d="M3.5 18.75C3.5 19.8546 4.39543 20.75 5.5 20.75H15.5C16.6046 20.75 17.5 19.8546 17.5 18.75V7.88347C17.5 7.34255 17.2809 6.8247 16.8927 6.44804L13.663 3.31457C13.2898 2.9525 12.7903 2.75 12.2703 2.75H5.5C4.39543 2.75 3.5 3.64543 3.5 4.75V18.75Z" fill="#F7E7E3" fill-opacity="0.6"/>
<path d="M11.5 2.75V6.75C11.5 7.30228 11.9477 7.75 12.5 7.75H16.5" stroke="#EBDACE"/>
<path d="M4.5 19.25C3.67157 19.25 3 18.5784 3 17.75V3.75C3 2.92157 3.67157 2.25 4.5 2.25H11.9945C12.3666 2.25 12.7255 2.38833 13.0013 2.63812L16.5068 5.81247C16.8209 6.09683 17 6.50071 17 6.92435V17.75C17 18.5784 16.3284 19.25 15.5 19.25H4.5Z" stroke="#CC4F28"/>
<path d="M11.5 1.75V5.75C11.5 6.30228 11.9477 6.75 12.5 6.75H16.5" stroke="#CC4F28"/>
<path d="M12.4642 10.9589C12.4642 11.2949 12.3832 11.6099 12.2212 11.9039C12.0652 12.1979 11.8162 12.4349 11.4742 12.6149C11.1382 12.7949 10.7122 12.8849 10.1962 12.8849H9.14321V15.2969H7.88321V9.01487H10.1962C10.6822 9.01487 11.0962 9.09887 11.4382 9.26687C11.7802 9.43487 12.0352 9.66587 12.2032 9.95987C12.3772 10.2539 12.4642 10.5869 12.4642 10.9589ZM10.1422 11.8679C10.4902 11.8679 10.7482 11.7899 10.9162 11.6339C11.0842 11.4719 11.1682 11.2469 11.1682 10.9589C11.1682 10.3469 10.8262 10.0409 10.1422 10.0409H9.14321V11.8679H10.1422Z" fill="#CC4F28"/>
</svg>
