<svg width="20" height="20" viewBox="0 0 20 20" fill="none" xmlns="http://www.w3.org/2000/svg">
<path d="M16.875 5.125H3.125" stroke="#434860" stroke-width="1.2" stroke-linecap="round" stroke-linejoin="round"/>
<path d="M8.125 8.5625V13.5625" stroke="#434860" stroke-width="1.2" stroke-linecap="round" stroke-linejoin="round"/>
<path d="M11.875 8.5625V13.5625" stroke="#434860" stroke-width="1.2" stroke-linecap="round" stroke-linejoin="round"/>
<path d="M15.625 5.125V16.6875C15.625 16.8533 15.5592 17.0122 15.4419 17.1294C15.3247 17.2467 15.1658 17.3125 15 17.3125H5C4.83424 17.3125 4.67527 17.2467 4.55806 17.1294C4.44085 17.0122 4.375 16.8533 4.375 16.6875V5.125" stroke="#434860" stroke-width="1.2" stroke-linecap="round" stroke-linejoin="round"/>
<path d="M13.125 5.125V3.25C13.125 2.91848 12.9933 2.60054 12.7589 2.36612C12.5245 2.1317 12.2065 2 11.875 2H8.125C7.79348 2 7.47554 2.1317 7.24112 2.36612C7.0067 2.60054 6.875 2.91848 6.875 3.25V5.125" stroke="#434860" stroke-width="1.2" stroke-linecap="round" stroke-linejoin="round"/>
</svg>
