<svg width="16" height="17" viewBox="0 0 16 17" fill="none" xmlns="http://www.w3.org/2000/svg">
<path d="M7.44904 4.73691C7.59102 4.88941 7.79003 4.97597 7.99839 4.97585C8.20674 4.97573 8.40566 4.88895 8.54746 4.73629L9.12128 4.11857C10.2964 2.85631 12.1748 2.85631 13.3499 4.11857C14.55 5.40768 14.55 7.51332 13.3501 8.81003C13.3499 8.81026 13.3497 8.81049 13.3495 8.81073L7.99875 14.5548L2.65075 8.81034C2.65074 8.81034 2.65074 8.81034 2.65074 8.81034C1.44975 7.52028 1.44976 5.40803 2.65074 4.11801L2.65074 4.11801C3.8232 2.85862 5.7004 2.85863 6.87282 4.11801L6.87284 4.11803L7.44904 4.73691ZM7.82094 14.7457C7.82103 14.7456 7.82112 14.7455 7.82121 14.7454L7.82109 14.7455L7.82094 14.7457ZM8.17617 14.7454C8.17627 14.7455 8.17636 14.7456 8.17646 14.7457L7.99881 14.9111L8.17646 14.7457L8.17617 14.7454Z" stroke="#C2C5D2" stroke-width="1.5" stroke-linejoin="round"/>
</svg>
