<svg width="24" height="25" viewBox="0 0 24 25" fill="none" xmlns="http://www.w3.org/2000/svg">
<path d="M11.9978 8.54388L11.3841 7.90501L10.5609 7.04809L10.5609 7.04807C8.79679 5.21141 5.95121 5.2114 4.18703 7.04807L4.18702 7.04808C2.40433 8.90401 2.40432 11.9267 4.18702 13.7827L11.9978 8.54388ZM11.9978 8.54388L12.6108 7.90432L13.4307 7.04885C13.4308 7.04867 13.431 7.0485 13.4312 7.04833C15.1992 5.2082 18.0461 5.20837 19.8139 7.04884C21.5955 8.90372 21.5949 11.917 19.8147 13.7818C19.8143 13.7822 19.814 13.7825 19.8137 13.7828L11.9982 21.9147L4.18703 13.7827L11.9978 8.54388Z" stroke="#5755FF" stroke-width="1.7"/>
</svg>
