<svg width="18" height="18" viewBox="0 0 18 18" fill="none" xmlns="http://www.w3.org/2000/svg">
<mask id="path-1-inside-1_1975_13868" fill="white">
<path d="M0 2C0 0.89543 0.895431 0 2 0H16C17.1046 0 18 0.895431 18 2V16C18 17.1046 17.1046 18 16 18H2C0.89543 18 0 17.1046 0 16V2Z"/>
</mask>
<path d="M0 2C0 0.89543 0.895431 0 2 0H16C17.1046 0 18 0.895431 18 2V16C18 17.1046 17.1046 18 16 18H2C0.89543 18 0 17.1046 0 16V2Z" fill="#F5F6FA"/>
<path d="M2 1H16V-1H2V1ZM17 2V16H19V2H17ZM16 17H2V19H16V17ZM1 16V2H-1V16H1ZM2 17C1.44772 17 1 16.5523 1 16H-1C-1 17.6569 0.343146 19 2 19V17ZM17 16C17 16.5523 16.5523 17 16 17V19C17.6569 19 19 17.6569 19 16H17ZM16 1C16.5523 1 17 1.44772 17 2H19C19 0.343146 17.6569 -1 16 -1V1ZM2 -1C0.343146 -1 -1 0.343146 -1 2H1C1 1.44772 1.44772 1 2 1V-1Z" fill="#DBDDE5" mask="url(#path-1-inside-1_1975_13868)"/>
</svg>
