<svg width="21" height="20" viewBox="0 0 21 20" fill="none" xmlns="http://www.w3.org/2000/svg">
<path fill-rule="evenodd" clip-rule="evenodd" d="M16.267 5.09H5.06699C4.95101 5.09 4.85699 5.18402 4.85699 5.3V15.1C4.85699 15.216 4.95101 15.31 5.06699 15.31H16.267C16.383 15.31 16.477 15.216 16.477 15.1V5.3C16.477 5.18402 16.383 5.09 16.267 5.09ZM5.06699 3.9C4.29379 3.9 3.66699 4.5268 3.66699 5.3V15.1C3.66699 15.8732 4.29379 16.5 5.06699 16.5H16.267C17.0402 16.5 17.667 15.8732 17.667 15.1V5.3C17.667 4.5268 17.0402 3.9 16.267 3.9H5.06699Z" fill="#434860"/>
<path fill-rule="evenodd" clip-rule="evenodd" d="M16.967 8.8H4.36699V7.61H16.967V8.8Z" fill="#434860"/>
<path fill-rule="evenodd" clip-rule="evenodd" d="M7.86699 2.5C8.1956 2.5 8.46199 2.76639 8.46199 3.095V5.405C8.46199 5.73361 8.1956 6 7.86699 6C7.53838 6 7.27199 5.73361 7.27199 5.405V3.095C7.27199 2.76639 7.53838 2.5 7.86699 2.5Z" fill="#434860"/>
<path fill-rule="evenodd" clip-rule="evenodd" d="M13.467 2.5C13.7956 2.5 14.062 2.76639 14.062 3.095V5.405C14.062 5.73361 13.7956 6 13.467 6C13.1384 6 12.872 5.73361 12.872 5.405V3.095C12.872 2.76639 13.1384 2.5 13.467 2.5Z" fill="#434860"/>
</svg>
