<svg width="11" height="10" viewBox="0 0 11 10" fill="none" xmlns="http://www.w3.org/2000/svg">
<path fill-rule="evenodd" clip-rule="evenodd" d="M4.69256 9.82217C4.93599 10.0593 5.33066 10.0593 5.57409 9.82217C5.81751 9.58507 5.81751 9.20065 5.57409 8.96355L1.50486 5L5.57409 1.03645C5.81751 0.79935 5.81751 0.414929 5.57409 0.177827C5.33066 -0.0592756 4.93599 -0.0592756 4.69256 0.177829L0.182569 4.57069C-0.0608564 4.80779 -0.0608564 5.19221 0.182569 5.42931L4.69256 9.82217ZM9.9359 9.82217C10.1793 10.0593 10.574 10.0593 10.8174 9.82217C11.0609 9.58507 11.0609 9.20065 10.8174 8.96355L6.7482 5L10.8174 1.03645C11.0609 0.79935 11.0609 0.414929 10.8174 0.177827C10.574 -0.0592756 10.1793 -0.0592756 9.9359 0.177829L5.42591 4.57069C5.18249 4.80779 5.18249 5.19221 5.42591 5.42931L9.9359 9.82217Z" fill="#3A4A5C"/>
</svg>
