<svg width="24" height="25" viewBox="0 0 24 25" fill="none" xmlns="http://www.w3.org/2000/svg">
<path d="M5.5 20.5459C5.5 21.6505 6.39543 22.5459 7.5 22.5459H17.5C18.6046 22.5459 19.5 21.6505 19.5 20.5459V9.67937C19.5 9.13845 19.2809 8.6206 18.8927 8.24393L15.663 5.11047C15.2898 4.7484 14.7903 4.5459 14.2703 4.5459H7.5C6.39543 4.5459 5.5 5.44133 5.5 6.5459V20.5459Z" fill="#E3EDF7" fill-opacity="0.6"/>
<path d="M13.5 4.5459V8.5459C13.5 9.09818 13.9477 9.5459 14.5 9.5459H18.5" stroke="#CEE0EB"/>
<path d="M6.5 21.0459C5.67157 21.0459 5 20.3743 5 19.5459V5.5459C5 4.71747 5.67157 4.0459 6.5 4.0459H13.9945C14.3666 4.0459 14.7255 4.18423 15.0013 4.43402L18.5068 7.60837C18.8209 7.89273 19 8.29661 19 8.72025V19.5459C19 20.3743 18.3284 21.0459 17.5 21.0459H6.5Z" stroke="#3471E7"/>
<path d="M13.5 3.5459V7.5459C13.5 8.09818 13.9477 8.5459 14.5 8.5459H18.5" stroke="#3471E7"/>
<path d="M9.589 14.3393C9.78784 14.0523 10.2122 14.0523 10.411 14.3393L12.0544 16.7113C12.2841 17.0429 12.0468 17.4961 11.6434 17.4961H8.35661C7.9532 17.4961 7.71587 17.0429 7.94561 16.7113L9.589 14.3393Z" fill="#3471E7"/>
<path d="M13.067 12.9961C13.2594 12.6628 13.7406 12.6628 13.933 12.9961L16.0981 16.7461C16.2905 17.0794 16.05 17.4961 15.6651 17.4961H11.3349C10.95 17.4961 10.7095 17.0794 10.9019 16.7461L13.067 12.9961Z" fill="#3471E7"/>
<circle cx="9.75" cy="11.2959" r="1.25" fill="#3471E7"/>
</svg>
