<svg width="32" height="33" viewBox="0 0 32 33" fill="none" xmlns="http://www.w3.org/2000/svg">
<path d="M7 28.5459C7 29.6505 7.89543 30.5459 9 30.5459H26C27.1046 30.5459 28 29.6505 28 28.5459V11.6071C28 11.0531 27.7702 10.5239 27.3654 10.1457L21.9481 5.08448C21.5777 4.7384 21.0897 4.5459 20.5827 4.5459H9C7.89543 4.5459 7 5.44133 7 6.5459V28.5459Z" fill="#E3EDF7" fill-opacity="0.6"/>
<path d="M18.5 3.5459V10.5459C18.5 11.0982 18.9477 11.5459 19.5 11.5459H26.5" stroke="#CEE0EB"/>
<path d="M7 29.0459C6.17157 29.0459 5.5 28.3743 5.5 27.5459V4.5459C5.5 3.71747 6.17157 3.0459 7 3.0459H19.2721C19.6501 3.0459 20.0141 3.18856 20.2914 3.44536L26.0192 8.74998C26.3258 9.03386 26.5 9.43273 26.5 9.85052V27.5459C26.5 28.3743 25.8284 29.0459 25 29.0459H7Z" stroke="#3471E7"/>
<path d="M18.5 2.5459V9.5459C18.5 10.0982 18.9477 10.5459 19.5 10.5459H26.5" stroke="#3471E7"/>
<path d="M9.90795 14.9659C9.67995 14.9659 9.49095 14.8969 9.34095 14.7589C9.19695 14.6149 9.12495 14.4379 9.12495 14.2279C9.12495 14.0179 9.19695 13.8439 9.34095 13.7059C9.49095 13.5619 9.67995 13.4899 9.90795 13.4899C10.1299 13.4899 10.3129 13.5619 10.4569 13.7059C10.6009 13.8439 10.6729 14.0179 10.6729 14.2279C10.6729 14.4379 10.6009 14.6149 10.4569 14.7589C10.3129 14.8969 10.1299 14.9659 9.90795 14.9659ZM10.5289 21.3649C10.5289 21.9169 10.3909 22.3129 10.1149 22.5529C9.84495 22.7989 9.45495 22.9219 8.94495 22.9219H8.38695V21.8509H8.74695C8.93895 21.8509 9.07395 21.8119 9.15195 21.7339C9.22995 21.6619 9.26895 21.5419 9.26895 21.3739V15.5599H10.5289V21.3649ZM13.0338 16.2799C13.1958 16.0519 13.4178 15.8629 13.6998 15.7129C13.9878 15.5569 14.3148 15.4789 14.6808 15.4789C15.1068 15.4789 15.4908 15.5839 15.8328 15.7939C16.1808 16.0039 16.4538 16.3039 16.6518 16.6939C16.8558 17.0779 16.9578 17.5249 16.9578 18.0349C16.9578 18.5449 16.8558 18.9979 16.6518 19.3939C16.4538 19.7839 16.1808 20.0869 15.8328 20.3029C15.4908 20.5189 15.1068 20.6269 14.6808 20.6269C14.3148 20.6269 13.9908 20.5519 13.7088 20.4019C13.4328 20.2519 13.2078 20.0629 13.0338 19.8349V22.9219H11.7738V15.5599H13.0338V16.2799ZM15.6708 18.0349C15.6708 17.7349 15.6078 17.4769 15.4818 17.2609C15.3618 17.0389 15.1998 16.8709 14.9958 16.7569C14.7978 16.6429 14.5818 16.5859 14.3478 16.5859C14.1198 16.5859 13.9038 16.6459 13.6998 16.7659C13.5018 16.8799 13.3398 17.0479 13.2138 17.2699C13.0938 17.4919 13.0338 17.7529 13.0338 18.0529C13.0338 18.3529 13.0938 18.6139 13.2138 18.8359C13.3398 19.0579 13.5018 19.2289 13.6998 19.3489C13.9038 19.4629 14.1198 19.5199 14.3478 19.5199C14.5818 19.5199 14.7978 19.4599 14.9958 19.3399C15.1998 19.2199 15.3618 19.0489 15.4818 18.8269C15.6078 18.6049 15.6708 18.3409 15.6708 18.0349ZM19.8264 15.4789C20.1984 15.4789 20.5254 15.5539 20.8074 15.7039C21.0894 15.8479 21.3114 16.0369 21.4734 16.2709V15.5599H22.7424V20.5819C22.7424 21.0439 22.6494 21.4549 22.4634 21.8149C22.2774 22.1809 21.9984 22.4689 21.6264 22.6789C21.2544 22.8949 20.8044 23.0029 20.2764 23.0029C19.5684 23.0029 18.9864 22.8379 18.5304 22.5079C18.0804 22.1779 17.8254 21.7279 17.7654 21.1579H19.0164C19.0824 21.3859 19.2234 21.5659 19.4394 21.6979C19.6614 21.8359 19.9284 21.9049 20.2404 21.9049C20.6064 21.9049 20.9034 21.7939 21.1314 21.5719C21.3594 21.3559 21.4734 21.0259 21.4734 20.5819V19.8079C21.3114 20.0419 21.0864 20.2369 20.7984 20.3929C20.5164 20.5489 20.1924 20.6269 19.8264 20.6269C19.4064 20.6269 19.0224 20.5189 18.6744 20.3029C18.3264 20.0869 18.0504 19.7839 17.8464 19.3939C17.6484 18.9979 17.5494 18.5449 17.5494 18.0349C17.5494 17.5309 17.6484 17.0839 17.8464 16.6939C18.0504 16.3039 18.3234 16.0039 18.6654 15.7939C19.0134 15.5839 19.4004 15.4789 19.8264 15.4789ZM21.4734 18.0529C21.4734 17.7469 21.4134 17.4859 21.2934 17.2699C21.1734 17.0479 21.0114 16.8799 20.8074 16.7659C20.6034 16.6459 20.3844 16.5859 20.1504 16.5859C19.9164 16.5859 19.7004 16.6429 19.5024 16.7569C19.3044 16.8709 19.1424 17.0389 19.0164 17.2609C18.8964 17.4769 18.8364 17.7349 18.8364 18.0349C18.8364 18.3349 18.8964 18.5989 19.0164 18.8269C19.1424 19.0489 19.3044 19.2199 19.5024 19.3399C19.7064 19.4599 19.9224 19.5199 20.1504 19.5199C20.3844 19.5199 20.6034 19.4629 20.8074 19.3489C21.0114 19.2289 21.1734 19.0609 21.2934 18.8449C21.4134 18.6229 21.4734 18.3589 21.4734 18.0529Z" fill="#3471E7"/>
</svg>
