<svg width="21" height="20" viewBox="0 0 21 20" fill="none" xmlns="http://www.w3.org/2000/svg">
<path fill-rule="evenodd" clip-rule="evenodd" d="M7.21643 2C7.59197 2 7.89641 2.30444 7.89641 2.67998V3.71996H10.0164H11.3363C11.7119 3.71996 12.0163 4.0244 12.0163 4.39995C12.0163 4.77549 11.7119 5.07993 11.3363 5.07993H10.5813C10.1699 7.08957 9.38944 8.93906 8.29354 10.554C8.61945 10.7783 8.94883 10.98 9.21498 11.0995C9.55754 11.2535 9.71047 11.6559 9.55657 11.9985C9.40266 12.341 9.0002 12.494 8.65764 12.3401C8.28322 12.1718 7.86233 11.9103 7.47958 11.6447C6.96639 12.2741 6.46787 12.7761 5.90353 13.2207C5.19389 13.7799 4.40341 14.2296 3.39913 14.7287C3.06283 14.8958 2.65471 14.7587 2.48758 14.4224C2.32045 14.0861 2.45759 13.6779 2.7939 13.5108C3.76673 13.0274 4.46055 12.6263 5.06188 12.1525C5.52623 11.7867 5.94945 11.3663 6.40515 10.8103C5.46764 9.98149 4.64488 8.94089 4.19011 7.86452C4.04395 7.51858 4.2059 7.11966 4.55183 6.9735C4.89777 6.82734 5.29669 6.9893 5.44285 7.33523C5.79024 8.15745 6.44107 9.00724 7.21957 9.7141C8.1368 8.34194 8.80838 6.78026 9.19045 5.07993H7.21643H3.09652C2.72097 5.07993 2.41653 4.77549 2.41653 4.39995C2.41653 4.0244 2.72097 3.71996 3.09652 3.71996H6.53644V2.67998C6.53644 2.30444 6.84088 2 7.21643 2ZM12.3215 8.25264C12.5027 7.85504 12.8994 7.59988 13.3363 7.59988C13.7733 7.59988 14.17 7.85504 14.3512 8.25264L18.355 17.0377C18.5107 17.3794 18.36 17.7827 18.0182 17.9384C17.6765 18.0942 17.2732 17.9434 17.1175 17.6017L15.7858 14.6797H10.8869L9.55518 17.6017C9.39944 17.9434 8.99616 18.0942 8.65443 17.9384C8.3127 17.7827 8.16193 17.3794 8.31767 17.0377L12.3215 8.25264ZM11.5067 13.3198H15.166L13.3363 9.30516L11.5067 13.3198Z" fill="#434860"/>
</svg>
