<svg width="32" height="33" viewBox="0 0 32 33" fill="none" xmlns="http://www.w3.org/2000/svg">
<path d="M7 28.5459C7 29.6505 7.89543 30.5459 9 30.5459H26C27.1046 30.5459 28 29.6505 28 28.5459V11.6071C28 11.0531 27.7702 10.5239 27.3654 10.1457L21.9481 5.08448C21.5777 4.7384 21.0897 4.5459 20.5827 4.5459H9C7.89543 4.5459 7 5.44133 7 6.5459V28.5459Z" fill="#F7E7E3" fill-opacity="0.6"/>
<path d="M18.5 3.5459V10.5459C18.5 11.0982 18.9477 11.5459 19.5 11.5459H26.5" stroke="#EBDACE"/>
<path d="M7 29.0459C6.17157 29.0459 5.5 28.3743 5.5 27.5459V4.5459C5.5 3.71747 6.17157 3.0459 7 3.0459H19.2721C19.6501 3.0459 20.0141 3.18856 20.2914 3.44536L26.0192 8.74998C26.3258 9.03386 26.5 9.43273 26.5 9.85052V27.5459C26.5 28.3743 25.8284 29.0459 25 29.0459H7Z" stroke="#CC4F28"/>
<path d="M18.5 2.5459V9.5459C18.5 10.0982 18.9477 10.5459 19.5 10.5459H26.5" stroke="#CC4F28"/>
<path d="M10.0368 16.2799C10.1988 16.0519 10.4208 15.8629 10.7028 15.7129C10.9908 15.5569 11.3178 15.4789 11.6838 15.4789C12.1098 15.4789 12.4938 15.5839 12.8358 15.7939C13.1838 16.0039 13.4568 16.3039 13.6548 16.6939C13.8588 17.0779 13.9608 17.5249 13.9608 18.0349C13.9608 18.5449 13.8588 18.9979 13.6548 19.3939C13.4568 19.7839 13.1838 20.0869 12.8358 20.3029C12.4938 20.5189 12.1098 20.6269 11.6838 20.6269C11.3178 20.6269 10.9938 20.5519 10.7118 20.4019C10.4358 20.2519 10.2108 20.0629 10.0368 19.8349V22.9219H8.77676V15.5599H10.0368V16.2799ZM12.6738 18.0349C12.6738 17.7349 12.6108 17.4769 12.4848 17.2609C12.3648 17.0389 12.2028 16.8709 11.9988 16.7569C11.8008 16.6429 11.5848 16.5859 11.3508 16.5859C11.1228 16.5859 10.9068 16.6459 10.7028 16.7659C10.5048 16.8799 10.3428 17.0479 10.2168 17.2699C10.0968 17.4919 10.0368 17.7529 10.0368 18.0529C10.0368 18.3529 10.0968 18.6139 10.2168 18.8359C10.3428 19.0579 10.5048 19.2289 10.7028 19.3489C10.9068 19.4629 11.1228 19.5199 11.3508 19.5199C11.5848 19.5199 11.8008 19.4599 11.9988 19.3399C12.2028 19.2199 12.3648 19.0489 12.4848 18.8269C12.6108 18.6049 12.6738 18.3409 12.6738 18.0349ZM16.1364 16.2799C16.2984 16.0519 16.5204 15.8629 16.8024 15.7129C17.0904 15.5569 17.4174 15.4789 17.7834 15.4789C18.2094 15.4789 18.5934 15.5839 18.9354 15.7939C19.2834 16.0039 19.5564 16.3039 19.7544 16.6939C19.9584 17.0779 20.0604 17.5249 20.0604 18.0349C20.0604 18.5449 19.9584 18.9979 19.7544 19.3939C19.5564 19.7839 19.2834 20.0869 18.9354 20.3029C18.5934 20.5189 18.2094 20.6269 17.7834 20.6269C17.4174 20.6269 17.0934 20.5519 16.8114 20.4019C16.5354 20.2519 16.3104 20.0629 16.1364 19.8349V22.9219H14.8764V15.5599H16.1364V16.2799ZM18.7734 18.0349C18.7734 17.7349 18.7104 17.4769 18.5844 17.2609C18.4644 17.0389 18.3024 16.8709 18.0984 16.7569C17.9004 16.6429 17.6844 16.5859 17.4504 16.5859C17.2224 16.5859 17.0064 16.6459 16.8024 16.7659C16.6044 16.8799 16.4424 17.0479 16.3164 17.2699C16.1964 17.4919 16.1364 17.7529 16.1364 18.0529C16.1364 18.3529 16.1964 18.6139 16.3164 18.8359C16.4424 19.0579 16.6044 19.2289 16.8024 19.3489C17.0064 19.4629 17.2224 19.5199 17.4504 19.5199C17.6844 19.5199 17.9004 19.4599 18.0984 19.3399C18.3024 19.2199 18.4644 19.0489 18.5844 18.8269C18.7104 18.6049 18.7734 18.3409 18.7734 18.0349ZM22.443 16.5949V19.0069C22.443 19.1749 22.482 19.2979 22.56 19.3759C22.644 19.4479 22.782 19.4839 22.974 19.4839H23.559V20.5459H22.767C21.705 20.5459 21.174 20.0299 21.174 18.9979V16.5949H20.58V15.5599H21.174V14.3269H22.443V15.5599H23.559V16.5949H22.443Z" fill="#CC4F28"/>
</svg>
