<svg width="16" height="16" viewBox="0 0 16 16" fill="none" xmlns="http://www.w3.org/2000/svg">
<path d="M1.14472 8.71056L4.01397 2.97207C4.11328 2.77344 4.41396 2.86044 4.39186 3.08141L4.02199 6.7801C4.01022 6.89784 4.10267 7 4.221 7H6.67639C6.82507 7 6.92177 7.15646 6.85528 7.28944L3.98603 13.0279C3.88672 13.2266 3.58604 13.1396 3.60814 12.9186L3.97801 9.2199C3.98978 9.10216 3.89733 9 3.779 9H1.32361C1.17493 9 1.07823 8.84354 1.14472 8.71056Z" fill="#5755FF"/>
<path opacity="0.7" d="M5.14472 8.71056L8.01397 2.97207C8.11328 2.77344 8.41396 2.86044 8.39186 3.08141L8.02199 6.7801C8.01022 6.89784 8.10267 7 8.221 7H10.6764C10.8251 7 10.9218 7.15646 10.8553 7.28944L7.98603 13.0279C7.88672 13.2266 7.58604 13.1396 7.60814 12.9186L7.97801 9.2199C7.98978 9.10216 7.89733 9 7.779 9H5.32361C5.17493 9 5.07823 8.84354 5.14472 8.71056Z" fill="#5755FF"/>
<path opacity="0.5" d="M9.14472 8.71056L12.1211 2.75777C12.2155 2.56901 12.5 2.63617 12.5 2.84721V6.8C12.5 6.91046 12.5895 7 12.7 7H14.6764C14.8251 7 14.9218 7.15646 14.8553 7.28944L11.8789 13.2422C11.7845 13.431 11.5 13.3638 11.5 13.1528V9.2C11.5 9.08954 11.4105 9 11.3 9H9.32361C9.17493 9 9.07823 8.84354 9.14472 8.71056Z" fill="#5755FF"/>
</svg>
