<svg width="24" height="25" viewBox="0 0 24 25" fill="none" xmlns="http://www.w3.org/2000/svg">
<path d="M5.5 20.5459C5.5 21.6505 6.39543 22.5459 7.5 22.5459H17.5C18.6046 22.5459 19.5 21.6505 19.5 20.5459V9.67937C19.5 9.13845 19.2809 8.6206 18.8927 8.24393L15.663 5.11047C15.2898 4.7484 14.7903 4.5459 14.2703 4.5459H7.5C6.39543 4.5459 5.5 5.44133 5.5 6.5459V20.5459Z" fill="#F7E7E3" fill-opacity="0.6"/>
<path d="M13.5 4.5459V8.5459C13.5 9.09818 13.9477 9.5459 14.5 9.5459H18.5" stroke="#EBDACE"/>
<path d="M6.5 21.0459C5.67157 21.0459 5 20.3743 5 19.5459V5.5459C5 4.71747 5.67157 4.0459 6.5 4.0459H13.9945C14.3666 4.0459 14.7255 4.18423 15.0013 4.43402L18.5068 7.60837C18.8209 7.89273 19 8.29661 19 8.72025V19.5459C19 20.3743 18.3284 21.0459 17.5 21.0459H6.5Z" stroke="#CC4F28"/>
<path d="M13.5 3.5459V7.5459C13.5 8.09818 13.9477 8.5459 14.5 8.5459H18.5" stroke="#CC4F28"/>
<path d="M14.4642 12.7538C14.4642 13.0898 14.3832 13.4048 14.2212 13.6988C14.0652 13.9928 13.8162 14.2298 13.4742 14.4098C13.1382 14.5898 12.7122 14.6798 12.1962 14.6798H11.1432V17.0918H9.88321V10.8098H12.1962C12.6822 10.8098 13.0962 10.8938 13.4382 11.0618C13.7802 11.2298 14.0352 11.4608 14.2032 11.7548C14.3772 12.0488 14.4642 12.3818 14.4642 12.7538ZM12.1422 13.6628C12.4902 13.6628 12.7482 13.5848 12.9162 13.4288C13.0842 13.2668 13.1682 13.0418 13.1682 12.7538C13.1682 12.1418 12.8262 11.8358 12.1422 11.8358H11.1432V13.6628H12.1422Z" fill="#CC4F28"/>
</svg>
