<svg width="20" height="20" viewBox="0 0 20 20" fill="none" xmlns="http://www.w3.org/2000/svg">
<path d="M5.39085 15.1321L5.04576 14.5135L5.39085 15.1321C5.54885 15.0439 5.8027 15.0472 6.043 15.2189C6.45006 15.5096 6.89228 15.7565 7.36226 15.9526C7.61011 16.0561 7.72362 16.2538 7.72362 16.4094C7.72362 17.4035 8.52996 18.2083 9.52341 18.2083H10.4768C11.4703 18.2083 12.2766 17.4035 12.2766 16.4094C12.2766 16.2538 12.3901 16.0561 12.638 15.9526C13.1079 15.7565 13.5501 15.5096 13.9572 15.2189C14.1975 15.0473 14.4513 15.0439 14.6093 15.1321C15.4914 15.6241 16.6054 15.3263 17.1235 14.4591L17.5365 13.768C18.0578 12.8954 17.7546 11.7653 16.8672 11.2702C16.7289 11.1931 16.6077 10.9912 16.6392 10.712C16.6656 10.478 16.6791 10.2404 16.6791 10C16.6791 9.75961 16.6656 9.52202 16.6392 9.28795C16.6077 9.00881 16.7289 8.80694 16.8672 8.72977C17.7546 8.23473 18.0578 7.10456 17.5365 6.23201L17.1236 5.54093C16.6054 4.67367 15.4914 4.37585 14.6093 4.86791C14.4513 4.95605 14.1975 4.95274 13.9572 4.78111C13.5501 4.4904 13.1079 4.24348 12.638 4.04738C12.3901 3.94395 12.2766 3.74622 12.2766 3.59058C12.2766 2.59652 11.4702 1.79166 10.4768 1.79166H9.52342C8.52996 1.79166 7.72362 2.59652 7.72362 3.59057C7.72362 3.74621 7.61011 3.94394 7.36225 4.04737C6.89229 4.24347 6.45007 4.4904 6.04301 4.78112L6.45469 5.35753L6.04301 4.78112C5.8027 4.95275 5.54885 4.95606 5.39085 4.86791C4.50881 4.37585 3.3948 4.67367 2.8766 5.54093L2.46368 6.232C1.94232 7.10455 2.24557 8.23473 3.13295 8.72978C3.27128 8.80695 3.3925 9.00883 3.361 9.28797C3.33458 9.52203 3.32105 9.75962 3.32105 10C3.32105 10.2404 3.33458 10.478 3.361 10.712C3.3925 10.9912 3.27127 11.193 3.13295 11.2702C2.24557 11.7653 1.94232 12.8954 2.46368 13.768L2.8766 14.4591L3.48466 14.0957L2.8766 14.4591C3.3948 15.3263 4.5088 15.6241 5.39085 15.1321Z" stroke="#4130DF" stroke-width="1.41667"/>
<path d="M10.0005 12.5832C11.4299 12.5832 12.5977 11.4315 12.5977 9.99982C12.5977 8.56817 11.4299 7.41649 10.0005 7.41649C8.57099 7.41649 7.40324 8.56817 7.40324 9.99982C7.40324 11.4315 8.57099 12.5832 10.0005 12.5832Z" stroke="#4130DF" stroke-width="1.41667"/>
</svg>
