<svg width="20" height="21" viewBox="0 0 20 21" fill="none" xmlns="http://www.w3.org/2000/svg">
<path d="M3.5 18.75C3.5 19.8546 4.39543 20.75 5.5 20.75H15.5C16.6046 20.75 17.5 19.8546 17.5 18.75V7.88347C17.5 7.34255 17.2809 6.8247 16.8927 6.44804L13.663 3.31457C13.2898 2.9525 12.7903 2.75 12.2703 2.75H5.5C4.39543 2.75 3.5 3.64543 3.5 4.75V18.75Z" fill="#F7E3E3" fill-opacity="0.6"/>
<path d="M11.5 2.75V6.75C11.5 7.30228 11.9477 7.75 12.5 7.75H16.5" stroke="#F7E3E3"/>
<path d="M4.5 19.25C3.67157 19.25 3 18.5784 3 17.75V3.75C3 2.92157 3.67157 2.25 4.5 2.25H11.9945C12.3666 2.25 12.7255 2.38833 13.0013 2.63812L16.5068 5.81247C16.8209 6.09683 17 6.50071 17 6.92435V17.75C17 18.5784 16.3284 19.25 15.5 19.25H4.5Z" stroke="#C30000"/>
<path d="M11.5 1.75V5.75C11.5 6.30228 11.9477 6.75 12.5 6.75H16.5" stroke="#C30000"/>
<path d="M12.9356 12.3331C12.6169 12.3331 12.2261 12.3764 11.7702 12.4598C11.1361 11.7929 10.4746 10.8292 10.0085 9.87883C10.4712 7.95812 10.2381 7.68802 10.1353 7.56131C10.0256 7.42459 9.87136 7.20117 9.69998 7.20117C9.62457 7.20117 9.42577 7.23118 9.34693 7.25786C9.14128 7.32789 9.03845 7.47794 8.94933 7.67468C8.70597 8.24156 9.04531 9.19858 9.38464 9.94219C9.08986 11.0993 8.59629 12.4798 8.07187 13.6069C6.7591 14.1971 6.0633 14.7773 6.00503 15.3308C5.98104 15.5309 6.03245 15.8277 6.38892 16.0911C6.48489 16.1678 6.60143 16.2045 6.7214 16.2045C7.02988 16.2045 7.33151 15.9778 7.68798 15.4876C7.94505 15.1274 8.22611 14.6439 8.51403 14.0404C9.44291 13.6436 10.5911 13.2801 11.5749 13.0767C12.1199 13.5935 12.6134 13.857 13.035 13.857C13.3435 13.857 13.6109 13.7169 13.8028 13.4468C14.0016 13.1767 14.0462 12.9233 13.9365 12.7165C13.8028 12.4598 13.4738 12.3331 12.9322 12.3331H12.9356ZM6.72825 15.6343C6.56716 15.5076 6.57401 15.4276 6.58087 15.3942C6.60143 15.2041 6.90306 14.8707 7.64342 14.4639C7.0813 15.4842 6.77967 15.6143 6.72825 15.6343ZM9.57315 7.8214C9.59372 7.81473 9.93991 8.19821 9.61086 8.91847C9.11043 8.42162 9.53888 7.83474 9.57315 7.8214ZM8.86022 13.2801C9.2064 12.4631 9.53888 11.5494 9.78224 10.7058C10.173 11.3927 10.6391 12.0596 11.1087 12.5932C10.3718 12.7632 9.58344 13.01 8.86022 13.2801ZM13.3332 13.1234C13.2235 13.2701 12.9939 13.2701 12.9116 13.2701C12.7265 13.2701 12.6614 13.1634 12.3804 12.95C12.61 12.9266 12.8294 12.92 13.0076 12.92C13.3161 12.92 13.3675 12.9633 13.4121 12.9833C13.4052 13.0067 13.3846 13.0533 13.3367 13.1267L13.3332 13.1234Z" fill="#31336F" stroke="#C30000" stroke-width="0.5"/>
</svg>
