<svg width="20" height="20" viewBox="0 0 20 20" fill="none" xmlns="http://www.w3.org/2000/svg">
<path d="M9.54067 15.7672L4.87346 14.5094C4.21034 14.3307 3.7064 13.7907 3.57388 13.1169L1.90911 4.65124C1.66188 3.39409 2.76835 2.28762 4.02551 2.53484L12.4911 4.19962C13.165 4.33213 13.705 4.83607 13.8837 5.49919L15.1415 10.1664" stroke="#4130DF" stroke-width="1.41667" stroke-linecap="round"/>
<path d="M9.49004 7.84879C10.1185 8.47725 10.1181 9.49305 9.49346 10.1176C8.86887 10.7422 7.85308 10.7427 7.22462 10.1142C6.59616 9.48576 6.5966 8.46996 7.22119 7.84537C7.84578 7.22078 8.86158 7.22033 9.49004 7.84879Z" stroke="#4130DF" stroke-width="1.41667" stroke-linecap="round"/>
<path d="M10.348 17.5072C9.64409 16.8033 9.64409 15.662 10.348 14.9581L14.3332 10.9729C15.0371 10.269 16.1784 10.269 16.8823 10.9729L17.4618 11.5524C18.1657 12.2563 18.1657 13.3975 17.4618 14.1015L13.4766 18.0867C12.7727 18.7906 11.6314 18.7906 10.9275 18.0867L10.348 17.5072Z" stroke="#4130DF" stroke-width="1.41667" stroke-linecap="round"/>
<path d="M11.9495 12.5749L9.99414 10.6195" stroke="#4130DF" stroke-width="1.41667" stroke-linecap="round"/>
</svg>
