<svg width="32" height="32" viewBox="0 0 32 32" fill="none" xmlns="http://www.w3.org/2000/svg">
<path d="M6 28.4541C6 30.111 7.34315 31.4541 9 31.4541H26C27.6569 31.4541 29 30.111 29 28.4541V10.568C29 9.79371 28.7007 9.04943 28.1646 8.49079L23.2572 3.37693C22.6915 2.78738 21.9097 2.4541 21.0926 2.4541H9C7.34315 2.4541 6 3.79725 6 5.4541V28.4541Z" fill="#E3F7EC" fill-opacity="0.6"/>
<path d="M19.5 2V8C19.5 9.10457 20.3954 10 21.5 10H27.5" stroke="#CEEBDB"/>
<path d="M7 29.9541C5.61929 29.9541 4.5 28.8348 4.5 27.4541V3.4541C4.5 2.07339 5.61929 0.954102 7 0.954102H19.7882C20.4636 0.954102 21.1103 1.2274 21.581 1.71179L26.7929 7.07483C27.2463 7.54145 27.5 8.16648 27.5 8.81715V27.4541C27.5 28.8348 26.3807 29.9541 25 29.9541H7Z" stroke="#00813B"/>
<path d="M19.5 1V7C19.5 8.10457 20.3954 9 21.5 9H27.5" stroke="#00813B"/>
<path d="M13.2402 20L12.2142 18.452L11.3052 20H9.95523L11.5842 17.498L9.93723 15.014H11.3592L12.3762 16.553L13.2942 15.014H14.6442L13.0062 17.498L14.6622 20H13.2402ZM16.6066 13.34V20H15.3466V13.34H16.6066ZM19.7595 20.081C19.3515 20.081 18.9855 20.009 18.6615 19.865C18.3375 19.715 18.0795 19.514 17.8875 19.262C17.7015 19.01 17.5995 18.731 17.5815 18.425H18.8505C18.8745 18.617 18.9675 18.776 19.1295 18.902C19.2975 19.028 19.5045 19.091 19.7505 19.091C19.9905 19.091 20.1765 19.043 20.3085 18.947C20.4465 18.851 20.5155 18.728 20.5155 18.578C20.5155 18.416 20.4315 18.296 20.2635 18.218C20.1015 18.134 19.8405 18.044 19.4805 17.948C19.1085 17.858 18.8025 17.765 18.5625 17.669C18.3285 17.573 18.1245 17.426 17.9505 17.228C17.7825 17.03 17.6985 16.763 17.6985 16.427C17.6985 16.151 17.7765 15.899 17.9325 15.671C18.0945 15.443 18.3225 15.263 18.6165 15.131C18.9165 14.999 19.2675 14.933 19.6695 14.933C20.2635 14.933 20.7375 15.083 21.0915 15.383C21.4455 15.677 21.6405 16.076 21.6765 16.58H20.4705C20.4525 16.382 20.3685 16.226 20.2185 16.112C20.0745 15.992 19.8795 15.932 19.6335 15.932C19.4055 15.932 19.2285 15.974 19.1025 16.058C18.9825 16.142 18.9225 16.259 18.9225 16.409C18.9225 16.577 19.0065 16.706 19.1745 16.796C19.3425 16.88 19.6035 16.967 19.9575 17.057C20.3175 17.147 20.6145 17.24 20.8485 17.336C21.0825 17.432 21.2835 17.582 21.4515 17.786C21.6255 17.984 21.7155 18.248 21.7215 18.578C21.7215 18.866 21.6405 19.124 21.4785 19.352C21.3225 19.58 21.0945 19.76 20.7945 19.892C20.5005 20.018 20.1555 20.081 19.7595 20.081Z" fill="#00813B"/>
</svg>
