<svg width="24" height="24" viewBox="0 0 24 24" fill="none" xmlns="http://www.w3.org/2000/svg">
<path d="M11.4487 18.9207L5.84805 17.4113C5.05231 17.1969 4.44758 16.5489 4.28856 15.7402L2.29083 5.58149C1.99416 4.07291 3.32193 2.74514 4.83051 3.04181L14.9892 5.03954C15.7979 5.19856 16.4459 5.80329 16.6603 6.59903L18.1697 12.1997" stroke="#434860" stroke-width="1.7" stroke-linecap="round"/>
<path d="M11.3879 9.41861C12.142 10.1728 12.1415 11.3917 11.392 12.1412C10.6425 12.8907 9.4235 12.8913 8.66935 12.1371C7.91519 11.383 7.91573 10.164 8.66524 9.4145C9.41474 8.665 10.6337 8.66446 11.3879 9.41861Z" stroke="#434860" stroke-width="1.7" stroke-linecap="round"/>
<path d="M12.4175 21.0086C11.5728 20.1639 11.5728 18.7944 12.4175 17.9497L17.1997 13.1675C18.0444 12.3228 19.4139 12.3228 20.2586 13.1675L20.954 13.8629C21.7987 14.7075 21.7987 16.0771 20.954 16.9218L16.1718 21.704C15.3271 22.5487 13.9575 22.5487 13.1129 21.704L12.4175 21.0086Z" stroke="#434860" stroke-width="1.7" stroke-linecap="round"/>
<path d="M14.3394 15.0898L11.9929 12.7434" stroke="#434860" stroke-width="1.7" stroke-linecap="round"/>
</svg>
