<svg width="32" height="33" viewBox="0 0 32 33" fill="none" xmlns="http://www.w3.org/2000/svg">
<path d="M7 28.5459C7 29.6505 7.89543 30.5459 9 30.5459H26C27.1046 30.5459 28 29.6505 28 28.5459V11.6071C28 11.0531 27.7702 10.5239 27.3654 10.1457L21.9481 5.08448C21.5777 4.7384 21.0897 4.5459 20.5827 4.5459H9C7.89543 4.5459 7 5.44133 7 6.5459V28.5459Z" fill="#E3E5F7" fill-opacity="0.6"/>
<path d="M18.5 3.5459V10.5459C18.5 11.0982 18.9477 11.5459 19.5 11.5459H26.5" stroke="#CED4EB"/>
<path d="M7 29.0459C6.17157 29.0459 5.5 28.3743 5.5 27.5459V4.5459C5.5 3.71747 6.17157 3.0459 7 3.0459H19.2721C19.6501 3.0459 20.0141 3.18856 20.2914 3.44536L26.0192 8.74998C26.3258 9.03386 26.5 9.43273 26.5 9.85052V27.5459C26.5 28.3743 25.8284 29.0459 25 29.0459H7Z" stroke="#0D48BA"/>
<path d="M18.5 2.5459V9.5459C18.5 10.0982 18.9477 10.5459 19.5 10.5459H26.5" stroke="#0D48BA"/>
<path d="M7.67054 18.0349C7.67054 17.5309 7.76954 17.0839 7.96754 16.6939C8.17154 16.3039 8.44754 16.0039 8.79554 15.7939C9.14354 15.5839 9.53054 15.4789 9.95654 15.4789C10.2805 15.4789 10.5895 15.5509 10.8835 15.6949C11.1775 15.8329 11.4115 16.0189 11.5855 16.2529V13.8859H12.8635V20.5459H11.5855V19.8079C11.4295 20.0539 11.2105 20.2519 10.9285 20.4019C10.6465 20.5519 10.3195 20.6269 9.94754 20.6269C9.52754 20.6269 9.14354 20.5189 8.79554 20.3029C8.44754 20.0869 8.17154 19.7839 7.96754 19.3939C7.76954 18.9979 7.67054 18.5449 7.67054 18.0349ZM11.5945 18.0529C11.5945 17.7469 11.5345 17.4859 11.4145 17.2699C11.2945 17.0479 11.1325 16.8799 10.9285 16.7659C10.7245 16.6459 10.5055 16.5859 10.2715 16.5859C10.0375 16.5859 9.82154 16.6429 9.62354 16.7569C9.42554 16.8709 9.26354 17.0389 9.13754 17.2609C9.01754 17.4769 8.95754 17.7349 8.95754 18.0349C8.95754 18.3349 9.01754 18.5989 9.13754 18.8269C9.26354 19.0489 9.42554 19.2199 9.62354 19.3399C9.82754 19.4599 10.0435 19.5199 10.2715 19.5199C10.5055 19.5199 10.7245 19.4629 10.9285 19.3489C11.1325 19.2289 11.2945 19.0609 11.4145 18.8449C11.5345 18.6229 11.5945 18.3589 11.5945 18.0529ZM16.3081 20.6269C15.8281 20.6269 15.3961 20.5219 15.0121 20.3119C14.6281 20.0959 14.3251 19.7929 14.1031 19.4029C13.8871 19.0129 13.7791 18.5629 13.7791 18.0529C13.7791 17.5429 13.8901 17.0929 14.1121 16.7029C14.3401 16.3129 14.6491 16.0129 15.0391 15.8029C15.4291 15.5869 15.8641 15.4789 16.3441 15.4789C16.8241 15.4789 17.2591 15.5869 17.6491 15.8029C18.0391 16.0129 18.3451 16.3129 18.5671 16.7029C18.7951 17.0929 18.9091 17.5429 18.9091 18.0529C18.9091 18.5629 18.7921 19.0129 18.5581 19.4029C18.3301 19.7929 18.0181 20.0959 17.6221 20.3119C17.2321 20.5219 16.7941 20.6269 16.3081 20.6269ZM16.3081 19.5289C16.5361 19.5289 16.7491 19.4749 16.9471 19.3669C17.1511 19.2529 17.3131 19.0849 17.4331 18.8629C17.5531 18.6409 17.6131 18.3709 17.6131 18.0529C17.6131 17.5789 17.4871 17.2159 17.2351 16.9639C16.9891 16.7059 16.6861 16.5769 16.3261 16.5769C15.9661 16.5769 15.6631 16.7059 15.4171 16.9639C15.1771 17.2159 15.0571 17.5789 15.0571 18.0529C15.0571 18.5269 15.1741 18.8929 15.4081 19.1509C15.6481 19.4029 15.9481 19.5289 16.3081 19.5289ZM19.5094 18.0529C19.5094 17.5369 19.6144 17.0869 19.8244 16.7029C20.0344 16.3129 20.3254 16.0129 20.6974 15.8029C21.0694 15.5869 21.4954 15.4789 21.9754 15.4789C22.5934 15.4789 23.1034 15.6349 23.5054 15.9469C23.9134 16.2529 24.1864 16.6849 24.3244 17.2429H22.9654C22.8934 17.0269 22.7704 16.8589 22.5964 16.7389C22.4284 16.6129 22.2184 16.5499 21.9664 16.5499C21.6064 16.5499 21.3214 16.6819 21.1114 16.9459C20.9014 17.2039 20.7964 17.5729 20.7964 18.0529C20.7964 18.5269 20.9014 18.8959 21.1114 19.1599C21.3214 19.4179 21.6064 19.5469 21.9664 19.5469C22.4764 19.5469 22.8094 19.3189 22.9654 18.8629H24.3244C24.1864 19.4029 23.9134 19.8319 23.5054 20.1499C23.0974 20.4679 22.5874 20.6269 21.9754 20.6269C21.4954 20.6269 21.0694 20.5219 20.6974 20.3119C20.3254 20.0959 20.0344 19.7959 19.8244 19.4119C19.6144 19.0219 19.5094 18.5689 19.5094 18.0529Z" fill="#0D48BA"/>
</svg>
