<svg width="18" height="18" viewBox="0 0 18 18" fill="none" xmlns="http://www.w3.org/2000/svg">
<path opacity="0.6" fill-rule="evenodd" clip-rule="evenodd" d="M2 0C0.895431 0 0 0.89543 0 2V16C0 17.1046 0.89543 18 2 18H16C17.1046 18 18 17.1046 18 16V2C18 0.895431 17.1046 0 16 0H2ZM14.1009 6.60104C14.4329 6.26909 14.4329 5.7309 14.1009 5.39895C13.769 5.06701 13.2308 5.06701 12.8989 5.39895L7.4999 10.7979L5.10094 8.39895C4.769 8.06701 4.23081 8.06701 3.89886 8.39895C3.56692 8.7309 3.56692 9.26909 3.89886 9.60104L6.89886 12.601C7.23081 12.933 7.769 12.933 8.10094 12.601L14.1009 6.60104Z" fill="#5755FF"/>
</svg>
