<svg width="24" height="25" viewBox="0 0 24 25" fill="none" xmlns="http://www.w3.org/2000/svg">
<path d="M5.5 20.5459C5.5 21.6505 6.39543 22.5459 7.5 22.5459H17.5C18.6046 22.5459 19.5 21.6505 19.5 20.5459V9.67937C19.5 9.13845 19.2809 8.6206 18.8927 8.24393L15.663 5.11047C15.2898 4.7484 14.7903 4.5459 14.2703 4.5459H7.5C6.39543 4.5459 5.5 5.44133 5.5 6.5459V20.5459Z" fill="#F7E3E3" fill-opacity="0.6"/>
<path d="M13.5 4.5459V8.5459C13.5 9.09818 13.9477 9.5459 14.5 9.5459H18.5" stroke="#F7E3E3"/>
<path d="M6.5 21.0459C5.67157 21.0459 5 20.3743 5 19.5459V5.5459C5 4.71747 5.67157 4.0459 6.5 4.0459H13.9945C14.3666 4.0459 14.7255 4.18423 15.0013 4.43402L18.5068 7.60837C18.8209 7.89273 19 8.29661 19 8.72025V19.5459C19 20.3743 18.3284 21.0459 17.5 21.0459H6.5Z" stroke="#C30000"/>
<path d="M13.5 3.5459V7.5459C13.5 8.09818 13.9477 8.5459 14.5 8.5459H18.5" stroke="#C30000"/>
<path d="M14.9373 14.1285C14.6186 14.1285 14.2278 14.1718 13.7719 14.2552C13.1378 13.5883 12.4763 12.6246 12.0102 11.6742C12.4729 9.75353 12.2398 9.48343 12.137 9.35672C12.0273 9.22 11.8731 8.99658 11.7017 8.99658C11.6263 8.99658 11.4275 9.02659 11.3486 9.05327C11.143 9.1233 11.0402 9.27335 10.951 9.47009C10.7077 10.037 11.047 10.994 11.3863 11.7376C11.0916 12.8947 10.598 14.2752 10.0736 15.4023C8.76081 15.9925 8.06501 16.5727 8.00674 17.1263C7.98275 17.3263 8.03416 17.6231 8.39063 17.8865C8.4866 17.9632 8.60314 17.9999 8.72311 17.9999C9.03159 17.9999 9.33322 17.7732 9.68969 17.283C9.94676 16.9229 10.2278 16.4393 10.5157 15.8358C11.4446 15.439 12.5929 15.0755 13.5766 14.8721C14.1216 15.3889 14.6151 15.6524 15.0367 15.6524C15.3452 15.6524 15.6126 15.5123 15.8045 15.2422C16.0033 14.9721 16.0479 14.7187 15.9382 14.512C15.8045 14.2552 15.4755 14.1285 14.9339 14.1285H14.9373ZM8.72996 17.4297C8.56887 17.303 8.57572 17.223 8.58258 17.1896C8.60314 16.9995 8.90477 16.6661 9.64513 16.2593C9.083 17.2797 8.78138 17.4097 8.72996 17.4297ZM11.5749 9.61681C11.5954 9.61014 11.9416 9.99362 11.6126 10.7139C11.1121 10.217 11.5406 9.63015 11.5749 9.61681ZM10.8619 15.0755C11.2081 14.2585 11.5406 13.3449 11.7839 12.5012C12.1747 13.1881 12.6408 13.855 13.1104 14.3886C12.3735 14.5586 11.5851 14.8054 10.8619 15.0755ZM15.3349 14.9188C15.2252 15.0655 14.9956 15.0655 14.9133 15.0655C14.7282 15.0655 14.6631 14.9588 14.3821 14.7454C14.6117 14.722 14.8311 14.7154 15.0093 14.7154C15.3178 14.7154 15.3692 14.7587 15.4138 14.7787C15.4069 14.8021 15.3863 14.8487 15.3384 14.9221L15.3349 14.9188Z" fill="#C30000" stroke="#C30000" stroke-width="0.5"/>
</svg>
