<svg width="25" height="25" viewBox="0 0 25 25" fill="none" xmlns="http://www.w3.org/2000/svg">
<path d="M12.4997 21.2846C13.1025 21.2846 13.5912 20.7959 13.5912 20.1931C13.5912 19.5902 13.1025 19.1016 12.4997 19.1016C11.8969 19.1016 11.4082 19.5902 11.4082 20.1931C11.4082 20.7959 11.8969 21.2846 12.4997 21.2846Z" fill="#FF5555" stroke="#FF5555" stroke-width="0.5"/>
<path d="M12.5001 14.7354C11.0874 14.7353 9.72973 15.2831 8.71259 16.2634C8.50416 16.4646 8.38419 16.7404 8.37908 17.03C8.37396 17.3197 8.48411 17.5995 8.6853 17.8079C8.8865 18.0164 9.16224 18.1363 9.45189 18.1414C9.74153 18.1466 10.0213 18.0364 10.2298 17.8352C10.8496 17.2676 11.6596 16.9528 12.5001 16.9528C13.3406 16.9528 14.1505 17.2676 14.7704 17.8352C14.9788 18.0364 15.2587 18.1466 15.5483 18.1414C15.8379 18.1363 16.1137 18.0164 16.3149 17.8079C16.5161 17.5995 16.6262 17.3197 16.6211 17.03C16.616 16.7404 16.496 16.4646 16.2876 16.2634C15.2705 15.2831 13.9128 14.7353 12.5001 14.7354Z" fill="#FF5555"/>
<path d="M12.4996 9.27839C11.1813 9.27926 9.87666 9.54546 8.6634 10.0611C7.45015 10.5768 6.35309 11.3314 5.43761 12.28C5.33799 12.3854 5.26009 12.5093 5.20837 12.6448C5.15665 12.7802 5.13212 12.9245 5.13617 13.0695C5.14023 13.2144 5.17279 13.3571 5.232 13.4895C5.29121 13.6218 5.37591 13.7412 5.48127 13.8409C5.69404 14.042 5.97802 14.1505 6.27073 14.1423C6.41567 14.1382 6.55839 14.1057 6.69074 14.0465C6.82309 13.9873 6.94249 13.9026 7.04211 13.7972C7.75484 13.0577 8.60935 12.4696 9.55454 12.0678C10.4997 11.6661 11.5162 11.459 12.5433 11.459C13.5703 11.459 14.5868 11.6661 15.532 12.0678C16.4772 12.4696 17.3317 13.0577 18.0444 13.7972C18.1455 13.9003 18.2661 13.9824 18.3991 14.0386C18.5321 14.0948 18.675 14.124 18.8194 14.1246C19.0327 14.1238 19.2411 14.0605 19.4188 13.9426C19.5965 13.8246 19.7358 13.6572 19.8194 13.461C19.903 13.2647 19.9273 13.0483 19.8892 12.8384C19.8512 12.6285 19.7524 12.4344 19.6053 12.28C18.6847 11.3261 17.5806 10.5684 16.3594 10.0526C15.1382 9.53673 13.8253 9.27338 12.4996 9.27839Z" fill="#FF5555"/>
<path d="M23.109 8.11042C20.2607 5.36265 16.4573 3.82715 12.4996 3.82715C8.54195 3.82715 4.73862 5.36265 1.89027 8.11042C1.70607 8.31524 1.60612 8.58214 1.61049 8.85758C1.61485 9.13302 1.7232 9.39662 1.9138 9.5955C2.1044 9.79439 2.36315 9.91385 2.63816 9.92993C2.91316 9.946 3.18407 9.8575 3.39654 9.68218C5.83888 7.3214 9.10284 6.00177 12.4996 6.00177C15.8965 6.00177 19.1604 7.3214 21.6028 9.68218C21.8051 9.87721 22.0749 9.98668 22.3559 9.9878C22.5029 9.98723 22.6483 9.95697 22.7834 9.89883C22.9184 9.84068 23.0403 9.75586 23.1418 9.64943C23.3408 9.44063 23.449 9.16155 23.4429 8.87317C23.4368 8.58479 23.3167 8.31056 23.109 8.11042Z" fill="#FF5555" stroke="#FF5555" stroke-width="0.5"/>
<path d="M23.109 8.11042C20.2607 5.36265 16.4573 3.82715 12.4996 3.82715C8.54195 3.82715 4.73862 5.36265 1.89027 8.11042C1.70607 8.31524 1.60612 8.58214 1.61049 8.85758C1.61485 9.13302 1.7232 9.39662 1.9138 9.5955C2.1044 9.79439 2.36315 9.91385 2.63816 9.92993C2.91316 9.946 3.18407 9.8575 3.39654 9.68218C5.83888 7.3214 9.10284 6.00177 12.4996 6.00177C15.8965 6.00177 19.1604 7.3214 21.6028 9.68218C21.8051 9.87721 22.0749 9.98668 22.3559 9.9878C22.5029 9.98723 22.6483 9.95697 22.7834 9.89883C22.9184 9.84068 23.0403 9.75586 23.1418 9.64943C23.3408 9.44063 23.449 9.16155 23.4429 8.87317C23.4368 8.58479 23.3167 8.31056 23.109 8.11042Z" fill="#FF5555"/>
</svg>
