<svg width="25" height="25" viewBox="0 0 25 25" fill="none" xmlns="http://www.w3.org/2000/svg">
<path d="M12.4997 21.2846C13.1025 21.2846 13.5912 20.7959 13.5912 20.1931C13.5912 19.5902 13.1025 19.1016 12.4997 19.1016C11.8969 19.1016 11.4082 19.5902 11.4082 20.1931C11.4082 20.7959 11.8969 21.2846 12.4997 21.2846Z" fill="#868BA2" stroke="#868BA2" stroke-width="0.5"/>
<path d="M12.9801 11.4611L10.9062 9.39814L8.22116 6.73488L6.52933 5.04305L4.54281 3.04561C4.44104 2.94384 4.32022 2.86311 4.18725 2.80803C4.05428 2.75296 3.91176 2.72461 3.76784 2.72461C3.62392 2.72461 3.4814 2.75296 3.34843 2.80803C3.21546 2.86311 3.09465 2.94384 2.99288 3.04561C2.78734 3.25114 2.67188 3.52991 2.67188 3.82057C2.67188 4.11124 2.78734 4.39001 2.99288 4.59554L4.49915 6.09089L6.09273 7.68448L8.52678 10.1294L10.2186 11.8104L13.2093 14.8011L16.2546 17.8573L20.4569 22.0595C20.5583 22.1618 20.6791 22.243 20.8121 22.2985C20.9451 22.3539 21.0877 22.3824 21.2318 22.3824C21.3759 22.3824 21.5186 22.3539 21.6516 22.2985C21.7846 22.243 21.9053 22.1618 22.0068 22.0595C22.1091 21.9581 22.1903 21.8373 22.2457 21.7043C22.3011 21.5713 22.3297 21.4287 22.3297 21.2846C22.3297 21.1405 22.3011 20.9978 22.2457 20.8648C22.1903 20.7318 22.1091 20.6111 22.0068 20.5096L12.9801 11.4611Z" fill="#FF5555"/>
<path d="M23.109 8.10992C20.2661 5.35298 16.4597 3.81399 12.4996 3.82033C10.8519 3.8248 9.21567 4.09382 7.65332 4.61713L9.42155 6.38535C11.5628 5.85031 13.8052 5.87022 15.9367 6.44319C18.0682 7.01616 20.0183 8.12327 21.6027 9.65985C21.805 9.85488 22.0748 9.96435 22.3558 9.96547C22.5028 9.96491 22.6482 9.93465 22.7833 9.87651C22.9183 9.81836 23.0402 9.73353 23.1417 9.62711C23.3341 9.41936 23.4382 9.14498 23.4321 8.86189C23.426 8.57881 23.3101 8.30917 23.109 8.10992Z" fill="#868BA2"/>
<path d="M3.57118 6.71289C2.97896 7.1388 2.41729 7.60565 1.89027 8.11001C1.70607 8.31483 1.60612 8.58173 1.61049 8.85717C1.61485 9.13261 1.7232 9.39621 1.9138 9.5951C2.1044 9.79398 2.36315 9.91345 2.63816 9.92952C2.91316 9.9456 3.18407 9.85709 3.39654 9.68177C3.94087 9.16738 4.52481 8.69658 5.14294 8.27373L3.57118 6.71289Z" fill="#868BA2"/>
<path d="M17.9573 13.7971C18.0584 13.9003 18.179 13.9823 18.312 14.0385C18.445 14.0947 18.5879 14.124 18.7323 14.1246C18.9456 14.1238 19.154 14.0605 19.3317 13.9425C19.5094 13.8246 19.6487 13.6571 19.7323 13.4609C19.8159 13.2647 19.8402 13.0482 19.8021 12.8383C19.7641 12.6285 19.6654 12.4343 19.5182 12.2799C18.6078 11.3366 17.5178 10.5851 16.3125 10.0696C15.1071 9.55406 13.8108 9.28503 12.4998 9.27832H12.3252L14.8902 11.8433C16.0549 12.2383 17.1071 12.9085 17.9573 13.7971Z" fill="#868BA2"/>
<path d="M7.51145 10.6533C6.74873 11.0976 6.05088 11.6448 5.43761 12.2797C5.33799 12.385 5.26009 12.509 5.20837 12.6444C5.15665 12.7799 5.13212 12.9242 5.13617 13.0691C5.14023 13.2141 5.17279 13.3568 5.232 13.4891C5.29121 13.6215 5.37591 13.7409 5.48127 13.8405C5.69404 14.0417 5.97801 14.1501 6.27073 14.1419C6.41567 14.1379 6.55839 14.1053 6.69074 14.0461C6.82309 13.9869 6.94249 13.9022 7.04211 13.7968C7.678 13.1647 8.41603 12.6443 9.22511 12.2578L7.51145 10.6533Z" fill="#868BA2"/>
<path d="M8.71259 16.2632C8.50416 16.4644 8.38419 16.7402 8.37908 17.0298C8.37396 17.3194 8.48411 17.5993 8.6853 17.8077C8.8865 18.0161 9.16224 18.1361 9.45189 18.1412C9.74153 18.1463 10.0213 18.0362 10.2298 17.835C10.7917 17.3167 11.5144 17.0069 12.2772 16.9572C13.04 16.9076 13.7968 17.1211 14.4211 17.5621L11.6706 14.8115C10.5585 14.9791 9.52546 15.4861 8.71259 16.2632Z" fill="#868BA2"/>
</svg>
