<svg width="24" height="25" viewBox="0 0 24 25" fill="none" xmlns="http://www.w3.org/2000/svg">
<path d="M11.9997 21.2846C12.6025 21.2846 13.0912 20.7959 13.0912 20.1931C13.0912 19.5902 12.6025 19.1016 11.9997 19.1016C11.3969 19.1016 10.9082 19.5902 10.9082 20.1931C10.9082 20.7959 11.3969 21.2846 11.9997 21.2846Z" fill="#FF5555" stroke="#FF5555" stroke-width="0.5"/>
<path d="M12.0001 14.7354C10.5874 14.7353 9.22973 15.2831 8.21259 16.2634C8.00416 16.4646 7.88419 16.7404 7.87908 17.03C7.87396 17.3197 7.98411 17.5995 8.1853 17.8079C8.3865 18.0164 8.66224 18.1363 8.95189 18.1414C9.24153 18.1466 9.52135 18.0364 9.72978 17.8352C10.3496 17.2676 11.1596 16.9528 12.0001 16.9528C12.8406 16.9528 13.6505 17.2676 14.2704 17.8352C14.4788 18.0364 14.7587 18.1466 15.0483 18.1414C15.3379 18.1363 15.6137 18.0164 15.8149 17.8079C16.0161 17.5995 16.1262 17.3197 16.1211 17.03C16.116 16.7404 15.996 16.4646 15.7876 16.2634C14.7705 15.2831 13.4128 14.7353 12.0001 14.7354Z" fill="#868BA2"/>
<path d="M11.9996 9.27839C10.6813 9.27926 9.37666 9.54546 8.1634 10.0611C6.95015 10.5768 5.85309 11.3314 4.93761 12.28C4.83799 12.3854 4.76009 12.5093 4.70837 12.6448C4.65665 12.7802 4.63212 12.9245 4.63617 13.0695C4.64023 13.2144 4.67279 13.3571 4.732 13.4895C4.79121 13.6218 4.87591 13.7412 4.98127 13.8409C5.19404 14.042 5.47802 14.1505 5.77073 14.1423C5.91567 14.1382 6.05839 14.1057 6.19074 14.0465C6.32309 13.9873 6.44249 13.9026 6.54211 13.7972C7.25484 13.0577 8.10935 12.4696 9.05454 12.0678C9.99974 11.6661 11.0162 11.459 12.0433 11.459C13.0703 11.459 14.0868 11.6661 15.032 12.0678C15.9772 12.4696 16.8317 13.0577 17.5444 13.7972C17.6455 13.9003 17.7661 13.9824 17.8991 14.0386C18.0321 14.0948 18.175 14.124 18.3194 14.1246C18.5327 14.1238 18.7411 14.0605 18.9188 13.9426C19.0965 13.8246 19.2358 13.6572 19.3194 13.461C19.403 13.2647 19.4273 13.0483 19.3892 12.8384C19.3512 12.6285 19.2524 12.4344 19.1053 12.28C18.1847 11.3261 17.0806 10.5684 15.8594 10.0526C14.6382 9.53673 13.3253 9.27338 11.9996 9.27839Z" fill="#868BA2"/>
<path d="M22.609 8.11042C19.7607 5.36265 15.9573 3.82715 11.9996 3.82715C8.04195 3.82715 4.23862 5.36265 1.39027 8.11042C1.20607 8.31524 1.10612 8.58214 1.11049 8.85758C1.11485 9.13302 1.2232 9.39662 1.4138 9.5955C1.6044 9.79439 1.86315 9.91385 2.13816 9.92993C2.41316 9.946 2.68407 9.8575 2.89654 9.68218C5.33888 7.3214 8.60284 6.00177 11.9996 6.00177C15.3965 6.00177 18.6604 7.3214 21.1028 9.68218C21.3051 9.87721 21.5749 9.98668 21.8559 9.9878C22.0029 9.98723 22.1483 9.95697 22.2834 9.89883C22.4184 9.84068 22.5403 9.75586 22.6418 9.64943C22.8408 9.44063 22.949 9.16155 22.9429 8.87317C22.9368 8.58479 22.8167 8.31056 22.609 8.11042Z" fill="#868BA2"/>
</svg>
